<svg xmlns="http://www.w3.org/2000/svg" width="290" height="326" viewBox="0 0 290 326">
    <g fill="#000" fill-opacity=".3" fill-rule="nonzero" opacity=".771">
        <path d="M205.448 153.52c-4.63-5.688-22.632-26.254-29.015-34.895-5.76-7.79-9.815-15.584-10.559-17.036v-.243s-.019.043-.06.119c-.037-.076-.056-.12-.056-.12v.244c-.744 1.452-4.798 9.247-10.556 17.036-6.385 8.641-24.384 29.21-29.017 34.895-4.15 5.108-9.899 13.298-11.276 21.82a22.306 22.306 0 0 0-.424 4.314c0 12.884 10.956 23.316 24.47 23.316 8.48 0 15.947-4.108 20.342-10.35.727.873 3.662 5.379-1.847 16.557-6.194 12.576-10.518 15.03-10.518 15.03H184.695s-4.321-2.451-10.52-15.03c-5.499-11.178-2.567-15.684-1.842-16.557 4.395 6.244 11.862 10.35 20.341 10.35 13.515 0 24.468-10.432 24.468-23.316 0-1.469-.148-2.916-.419-4.314-1.38-8.522-7.126-16.712-11.275-21.82" opacity=".238"/>
        <path d="M229.178 238.03c-17.19 14.582-39.417 23.386-63.663 23.386-54.376 0-98.615-44.255-98.615-98.639 0-54.389 44.236-98.641 98.615-98.641 24.124 0 46.25 8.72 63.403 23.162l60.034-34.808a171.758 171.758 0 0 0-6.405-6.786c-15.2-15.2-32.898-27.132-52.604-35.478A164.82 164.82 0 0 0 198.52.5v30.632c0 .473-.07.92-.211 1.344-.974 4.728-15.281 8.476-32.796 8.476-17.51 0-31.822-3.748-32.79-8.476a4.167 4.167 0 0 1-.217-1.344V.5a164.624 164.624 0 0 0-31.416 9.726C81.378 18.572 63.677 30.505 48.477 45.71a164.106 164.106 0 0 0-6.916 7.362l26.486 15.291c.403.238.755.528 1.052.858 3.605 3.2-.3 17.477-9.06 32.638-8.752 15.168-19.154 25.694-23.733 24.174a4.169 4.169 0 0 1-1.268-.487L8.506 110.227C2.859 127.101 0 144.72 0 162.78c0 18.056 2.856 35.67 8.509 52.544l26.531-15.316c.403-.24.836-.4 1.269-.492 4.579-1.52 14.98 9.001 23.735 24.176 8.755 15.162 12.663 29.437 9.058 32.637-.295.33-.646.622-1.052.857L41.564 272.48a164.012 164.012 0 0 0 6.916 7.362c15.2 15.203 32.9 27.138 52.612 35.482a163.966 163.966 0 0 0 31.416 9.722v-31.24c0-.473.073-.925.216-1.344.969-4.725 15.281-8.476 32.793-8.476s31.82 3.75 32.793 8.476c.141.419.211.87.211 1.344v31.243a163.958 163.958 0 0 0 31.422-9.723c19.706-8.343 37.404-20.279 52.607-35.481a168.022 168.022 0 0 0 6.777-7.197l-60.15-34.619z" opacity=".238"/>
    </g>
</svg>
