<?xml version="1.0" encoding="utf-8"?>
<!-- Generator: Adobe Illustrator 18.0.0, SVG Export Plug-In . SVG Version: 6.00 Build 0)  -->
<!DOCTYPE svg PUBLIC "-//W3C//DTD SVG 1.1//EN" "http://www.w3.org/Graphics/SVG/1.1/DTD/svg11.dtd">
<svg version="1.1" id="Layer_1" xmlns="http://www.w3.org/2000/svg" xmlns:xlink="http://www.w3.org/1999/xlink" x="0px" y="0px"
	 width="235.2" height="154.6" viewBox="0 0 235.2 154.6" enable-background="new 0 0 235.2 154.6" xml:space="preserve">
<g>
	<path fill="#ffffff" d="M129.8,47.1c-1.4-1.8-7-8.1-8.9-10.7c-1.8-2.4-3-4.8-3.3-5.2v-0.1c0,0,0,0,0,0c0,0,0,0,0,0v0.1
		c-0.2,0.4-1.5,2.8-3.3,5.2c-2,2.7-7.5,9-8.9,10.7c-1.3,1.6-3,4.1-3.5,6.7c-0.1,0.4-0.1,0.9-0.1,1.3c0,4,3.4,7.2,7.5,7.2
		c2.6,0,4.9-1.3,6.3-3.2c0.2,0.3,1.1,1.7-0.6,5.1c-1.9,3.9-3.2,4.6-3.2,4.6h5.8h0h5.8c0,0-1.3-0.8-3.2-4.6c-1.7-3.4-0.8-4.8-0.6-5.1
		c1.4,1.9,3.7,3.2,6.3,3.2c4.2,0,7.5-3.2,7.5-7.2c0-0.5,0-0.9-0.1-1.3C132.8,51.2,131.1,48.7,129.8,47.1L129.8,47.1z"/>
	<path fill="#ffffff" d="M137.1,73.1c-5.3,4.5-12.1,7.2-19.6,7.2c-16.7,0-30.4-13.6-30.4-30.4c0-16.8,13.6-30.4,30.4-30.4
		c7.4,0,14.2,2.7,19.5,7.1L155.5,16c-0.6-0.7-1.3-1.4-2-2.1c-4.7-4.7-10.1-8.4-16.2-10.9c-3.1-1.3-6.4-2.3-9.7-3v9.4
		c0,0.1,0,0.3-0.1,0.4c-0.3,1.5-4.7,2.6-10.1,2.6c-5.4,0-9.8-1.2-10.1-2.6c0-0.1-0.1-0.3-0.1-0.4V0c-3.3,0.7-6.5,1.7-9.7,3
		c-6.1,2.6-11.5,6.2-16.2,10.9c-0.7,0.7-1.4,1.5-2.1,2.3l8.2,4.7c0.1,0.1,0.2,0.2,0.3,0.3c1.1,1-0.1,5.4-2.8,10.1
		c-2.7,4.7-5.9,7.9-7.3,7.4c-0.1,0-0.3-0.1-0.4-0.1l-8.2-4.7C67.4,39,66.5,44.4,66.5,50c0,5.6,0.9,11,2.6,16.2l8.2-4.7
		c0.1-0.1,0.3-0.1,0.4-0.1c1.4-0.5,4.6,2.8,7.3,7.4c2.7,4.7,3.9,9.1,2.8,10.1c-0.1,0.1-0.2,0.2-0.3,0.3l-8.2,4.7
		c0.7,0.8,1.4,1.5,2.1,2.3c4.7,4.7,10.1,8.4,16.2,10.9c3.1,1.3,6.4,2.3,9.7,3v-9.6c0-0.1,0-0.3,0.1-0.4c0.3-1.5,4.7-2.6,10.1-2.6
		c5.4,0,9.8,1.2,10.1,2.6c0,0.1,0.1,0.3,0.1,0.4v9.6c3.3-0.7,6.5-1.7,9.7-3c6.1-2.6,11.5-6.2,16.2-10.9c0.7-0.7,1.4-1.5,2.1-2.2
		L137.1,73.1L137.1,73.1z"/>
	<path fill="#ffffff" d="M23.5,127c0.2,0.1,0.3,0.2,0.4,0.3c0.1,0.1,0.2,0.3,0.2,0.5c0,0.1,0,0.3-0.1,0.5l-1.9,3.3
		c-0.2,0.3-0.5,0.5-0.7,0.5c-0.1,0-0.2,0-0.3,0c-0.1,0-0.2-0.1-0.3-0.1c-0.8-0.6-1.7-1.1-2.7-1.4c-0.9-0.3-2-0.5-3-0.5
		c-1.3,0-2.6,0.3-3.7,0.8c-1.1,0.5-2.1,1.2-2.9,2.1c-0.8,0.9-1.5,1.9-1.9,3.1c-0.5,1.2-0.7,2.4-0.7,3.8c0,1.3,0.2,2.6,0.7,3.7
		c0.5,1.2,1.1,2.2,1.9,3c0.8,0.9,1.8,1.6,2.9,2.1c1.1,0.5,2.4,0.7,3.7,0.7c1.1,0,2.1-0.2,3.1-0.5c1-0.3,1.9-0.8,2.7-1.4
		c0.1-0.1,0.2-0.1,0.3-0.2c0.1,0,0.2,0,0.3-0.1c0.2,0,0.5,0.1,0.7,0.4l2,3.3c0.1,0.2,0.1,0.3,0.1,0.4c0,0.2-0.1,0.3-0.2,0.5
		c-0.1,0.1-0.2,0.2-0.4,0.3c-1.2,0.8-2.6,1.5-4,1.9c-1.4,0.5-2.9,0.7-4.5,0.7c-1.4,0-2.7-0.2-4-0.5c-1.3-0.4-2.5-0.9-3.6-1.5
		c-1.1-0.7-2.1-1.4-3.1-2.4c-0.9-0.9-1.7-1.9-2.4-3c-0.7-1.1-1.2-2.3-1.5-3.6c-0.4-1.3-0.5-2.6-0.5-4c0-1.4,0.2-2.7,0.5-4
		c0.4-1.3,0.9-2.5,1.5-3.6c0.7-1.1,1.4-2.1,2.4-3.1c0.9-0.9,1.9-1.7,3.1-2.4c1.1-0.7,2.3-1.2,3.6-1.5c1.3-0.4,2.6-0.5,4-0.5
		c1.6,0,3.1,0.2,4.5,0.7C21,125.5,22.3,126.1,23.5,127L23.5,127z"/>
	<path fill="#ffffff" d="M51.6,153c0,0.2,0,0.4-0.1,0.6c-0.1,0.2-0.2,0.3-0.4,0.4c-0.2,0.1-0.3,0.1-0.5,0.2c-0.2,0-0.4,0-0.6,0h-2.5
		c-0.4,0-0.7-0.1-0.9-0.3c-0.2-0.2-0.3-0.5-0.4-0.8l-0.1-1.7c-0.5,0.5-1,0.9-1.5,1.3c-0.6,0.4-1.2,0.8-1.8,1
		c-0.6,0.3-1.3,0.5-2.1,0.7c-0.7,0.2-1.5,0.2-2.2,0.2c-1.2,0-2.3-0.2-3.4-0.5c-1.1-0.3-2.1-0.7-3.1-1.3c-1-0.6-1.8-1.2-2.6-2
		c-0.8-0.8-1.5-1.7-2-2.6c-0.6-1-1-2-1.3-3.1c-0.3-1.1-0.5-2.3-0.5-3.5c0-1.2,0.2-2.3,0.5-3.5c0.3-1.1,0.7-2.1,1.3-3.1
		c0.6-1,1.2-1.8,2-2.6c0.8-0.8,1.7-1.5,2.6-2c1-0.6,2-1,3.1-1.3c1.1-0.3,2.2-0.5,3.4-0.5c0.8,0,1.6,0.1,2.4,0.3
		c0.8,0.2,1.5,0.4,2.1,0.8c0.7,0.3,1.3,0.7,1.8,1.2c0.6,0.5,1.1,1,1.5,1.5l0.3-2.1c0.1-0.2,0.1-0.4,0.2-0.6c0.1-0.1,0.1-0.3,0.2-0.4
		c0.1-0.1,0.2-0.2,0.3-0.2c0.1,0,0.3,0,0.5,0h2c0.2,0,0.4,0,0.6,0.1c0.2,0,0.4,0.1,0.6,0.2c0.2,0.1,0.3,0.2,0.4,0.4
		c0.1,0.2,0.1,0.3,0.1,0.6V153L51.6,153z M31.1,141.6c0,1.1,0.2,2,0.6,3c0.4,0.9,0.9,1.8,1.5,2.5c0.7,0.7,1.4,1.3,2.3,1.7
		c0.9,0.4,1.9,0.6,2.9,0.6c1.1,0,2.1-0.2,3-0.6c0.9-0.4,1.7-1,2.4-1.7c0.7-0.7,1.2-1.5,1.6-2.5c0.4-0.9,0.6-1.9,0.6-3
		c0-1-0.2-2-0.6-3c-0.4-0.9-0.9-1.8-1.6-2.5c-0.7-0.7-1.5-1.3-2.4-1.7c-0.9-0.4-1.9-0.6-3-0.6c-1.1,0-2,0.2-2.9,0.6
		c-0.9,0.4-1.7,1-2.3,1.7c-0.7,0.7-1.2,1.5-1.5,2.5C31.3,139.5,31.1,140.5,31.1,141.6L31.1,141.6z"/>
	<path fill="#ffffff" d="M59.3,147.1c0.3,0.4,0.6,0.8,1,1.1c0.4,0.3,0.9,0.6,1.3,0.8c0.4,0.2,0.9,0.3,1.3,0.4c0.4,0.1,0.7,0.1,1,0.1
		c0.4,0,0.8,0,1.3-0.1c0.5-0.1,1-0.2,1.4-0.4c0.4-0.2,0.8-0.5,1.1-0.8c0.3-0.3,0.5-0.8,0.5-1.3c0-0.5-0.1-1-0.4-1.3
		c-0.2-0.3-0.6-0.6-1-0.8c-0.4-0.2-0.9-0.4-1.4-0.5c-0.5-0.1-1.1-0.3-1.7-0.5c-1.4-0.4-2.6-0.8-3.5-1.3c-1-0.5-1.8-1.1-2.4-1.8
		c-0.6-0.7-1.1-1.4-1.4-2.2c-0.3-0.8-0.4-1.7-0.4-2.6c0-1.1,0.2-2,0.6-2.9c0.4-0.9,1-1.6,1.8-2.3c0.8-0.6,1.7-1.1,2.8-1.5
		c1.1-0.3,2.3-0.5,3.6-0.5c0.9,0,1.7,0.1,2.5,0.2c0.7,0.2,1.4,0.4,2,0.7c0.6,0.3,1.2,0.7,1.7,1.2c0.5,0.5,1.1,1.1,1.7,1.8
		c0.2,0.2,0.3,0.5,0.3,0.7c0,0.2-0.1,0.5-0.4,0.7c-0.2,0.2-0.4,0.4-0.7,0.6c-0.3,0.2-0.5,0.5-0.8,0.7c-0.3,0.2-0.5,0.4-0.8,0.6
		c-0.2,0.2-0.4,0.2-0.6,0.2c-0.3,0-0.6-0.2-0.9-0.5c-0.3-0.3-0.6-0.6-0.9-0.9c-0.3-0.3-0.6-0.5-0.9-0.6c-0.3-0.2-0.7-0.3-1-0.4
		c-0.4-0.1-0.8-0.1-1.2-0.1c-0.4,0-0.7,0.1-1.1,0.2c-0.4,0.1-0.7,0.3-1.1,0.5c-0.3,0.2-0.6,0.5-0.8,0.8c-0.2,0.3-0.3,0.6-0.3,1
		c0,0.4,0.1,0.8,0.4,1.1c0.3,0.3,0.6,0.6,1,0.8c0.4,0.2,0.9,0.4,1.4,0.5c0.5,0.1,0.9,0.3,1.4,0.4c1.2,0.3,2.3,0.7,3.3,1.2
		c1,0.4,1.9,1,2.6,1.6c0.7,0.6,1.3,1.4,1.7,2.2c0.4,0.9,0.6,1.9,0.6,3c0,1.2-0.2,2.3-0.7,3.3c-0.5,1-1.2,1.8-2,2.5
		c-0.9,0.7-1.9,1.2-3.1,1.5c-1.2,0.4-2.5,0.5-3.8,0.5c-0.8,0-1.7-0.1-2.5-0.3c-0.9-0.2-1.7-0.5-2.5-0.8c-0.8-0.4-1.5-0.9-2.2-1.4
		c-0.7-0.6-1.2-1.3-1.7-2.1c-0.2-0.3-0.3-0.6-0.3-0.9c0-0.2,0-0.3,0.1-0.4c0.1-0.1,0.2-0.2,0.3-0.4l2.2-1.7c0.2-0.1,0.4-0.2,0.5-0.2
		c0.2,0,0.4,0.1,0.5,0.2C59,146.7,59.2,146.8,59.3,147.1L59.3,147.1z"/>
	<path fill="#ffffff" d="M78.2,130.3c0-0.3,0.1-0.6,0.3-0.9c0.2-0.2,0.5-0.3,0.9-0.3h3.3c0.1,0,0.3,0,0.4,0.1
		c0.2,0.1,0.3,0.1,0.4,0.3c0.1,0.1,0.2,0.2,0.3,0.4c0.1,0.1,0.1,0.3,0.1,0.5v22.7c0,0.8-0.4,1.2-1.2,1.2h-3.3
		c-0.8,0-1.2-0.4-1.2-1.2V130.3L78.2,130.3z"/>
	<path fill="#ffffff" d="M90.4,129.6c0.2-0.2,0.3-0.3,0.5-0.4c0.1-0.1,0.3-0.2,0.5-0.2c0.2,0,0.4,0,0.6,0h2c0.4,0,0.7,0.1,0.9,0.4
		c0.2,0.3,0.3,0.5,0.4,0.8l0.2,2.1c0.3-0.4,0.7-0.9,1.1-1.3c0.4-0.4,1-0.8,1.6-1.2c0.6-0.3,1.3-0.6,2.1-0.8c0.8-0.2,1.7-0.3,2.6-0.3
		c1.6,0,2.9,0.3,4.1,0.8c1.2,0.6,2.2,1.3,3.1,2.3c0.8,1,1.5,2.1,1.9,3.4c0.4,1.3,0.6,2.7,0.6,4.2v13.2c0,0.5-0.1,0.8-0.3,1.1
		c-0.2,0.2-0.5,0.4-1,0.4h-3c-0.5,0-0.9-0.1-1.1-0.3c-0.2-0.2-0.3-0.5-0.3-1v-13.1c0-0.7-0.1-1.4-0.4-2c-0.2-0.7-0.6-1.3-1-1.8
		c-0.5-0.5-1-0.9-1.7-1.3c-0.7-0.3-1.4-0.5-2.3-0.5c-0.6,0-1.2,0.1-1.9,0.4c-0.7,0.2-1.2,0.6-1.8,1c-0.5,0.4-1,1-1.3,1.6
		c-0.4,0.6-0.5,1.4-0.6,2.2V152c0,0.3,0,0.5,0,0.7c0,0.3-0.1,0.5-0.2,0.7c-0.1,0.2-0.2,0.4-0.4,0.5c-0.2,0.1-0.4,0.2-0.6,0.2h-3.3
		c-0.4,0-0.8-0.1-1-0.3c-0.2-0.2-0.3-0.5-0.3-0.9v-22.7C90.2,130,90.3,129.8,90.4,129.6L90.4,129.6z"/>
	<path fill="#ffffff" d="M116,141.6c0-1.2,0.2-2.4,0.5-3.5c0.3-1.1,0.7-2.1,1.3-3.1c0.6-1,1.2-1.8,2-2.6c0.8-0.8,1.7-1.5,2.6-2
		c1-0.6,2-1,3.1-1.3c1.1-0.3,2.2-0.5,3.4-0.5c1.2,0,2.3,0.2,3.4,0.5c1.1,0.3,2.1,0.7,3.1,1.3c1,0.6,1.8,1.2,2.6,2
		c0.8,0.8,1.5,1.7,2,2.6c0.6,1,1,2,1.3,3.1c0.3,1.1,0.5,2.3,0.5,3.5c0,1.2-0.2,2.3-0.5,3.5c-0.3,1.1-0.7,2.1-1.3,3.1
		c-0.6,1-1.2,1.8-2,2.6c-0.8,0.8-1.7,1.5-2.6,2c-1,0.6-2,1-3.1,1.3c-1.1,0.3-2.3,0.5-3.4,0.5c-1.2,0-2.3-0.2-3.4-0.5
		c-1.1-0.3-2.1-0.7-3.1-1.3c-1-0.6-1.8-1.2-2.6-2c-0.8-0.8-1.5-1.7-2-2.6c-0.6-1-1-2-1.3-3.1C116.1,144,116,142.8,116,141.6
		L116,141.6z M121.6,141.6c0,1.1,0.2,2,0.6,3c0.4,0.9,0.9,1.8,1.5,2.5c0.7,0.7,1.4,1.3,2.3,1.7c0.9,0.4,1.9,0.6,3,0.6
		c1,0,2-0.2,2.9-0.6c0.9-0.4,1.7-1,2.3-1.7c0.6-0.7,1.2-1.5,1.5-2.5c0.4-0.9,0.5-1.9,0.5-3c0-1-0.2-2-0.5-3
		c-0.4-0.9-0.9-1.8-1.5-2.5c-0.6-0.7-1.4-1.3-2.3-1.7c-0.9-0.4-1.9-0.6-2.9-0.6c-1.1,0-2.1,0.2-3,0.6c-0.9,0.4-1.7,1-2.3,1.7
		c-0.7,0.7-1.2,1.5-1.5,2.5C121.7,139.6,121.6,140.6,121.6,141.6L121.6,141.6z"/>
	<path fill="#ffffff" d="M169,127c0.2,0.1,0.3,0.2,0.4,0.3c0.1,0.1,0.2,0.3,0.2,0.5c0,0.1,0,0.3-0.1,0.5l-1.9,3.3
		c-0.2,0.3-0.5,0.5-0.7,0.5c-0.1,0-0.2,0-0.3,0c-0.1,0-0.2-0.1-0.3-0.1c-0.8-0.6-1.7-1.1-2.7-1.4c-0.9-0.3-2-0.5-3-0.5
		c-1.3,0-2.6,0.3-3.7,0.8c-1.1,0.5-2.1,1.2-2.9,2.1c-0.8,0.9-1.5,1.9-1.9,3.1c-0.5,1.2-0.7,2.4-0.7,3.8c0,1.3,0.2,2.6,0.7,3.7
		c0.5,1.2,1.1,2.2,1.9,3c0.8,0.9,1.8,1.6,2.9,2.1c1.1,0.5,2.4,0.7,3.7,0.7c1.1,0,2.1-0.2,3.1-0.5c1-0.3,1.9-0.8,2.7-1.4
		c0.1-0.1,0.2-0.1,0.3-0.2c0.1,0,0.2,0,0.3-0.1c0.2,0,0.5,0.1,0.7,0.4l2,3.3c0.1,0.2,0.1,0.3,0.1,0.4c0,0.2-0.1,0.3-0.2,0.5
		c-0.1,0.1-0.2,0.2-0.4,0.3c-1.2,0.8-2.6,1.5-4,1.9c-1.4,0.5-2.9,0.7-4.5,0.7c-1.4,0-2.7-0.2-4-0.5c-1.3-0.4-2.5-0.9-3.6-1.5
		c-1.1-0.7-2.1-1.4-3.1-2.4c-0.9-0.9-1.7-1.9-2.4-3c-0.7-1.1-1.2-2.3-1.5-3.6c-0.4-1.3-0.5-2.6-0.5-4c0-1.4,0.2-2.7,0.5-4
		c0.4-1.3,0.9-2.5,1.5-3.6c0.7-1.1,1.4-2.1,2.4-3.1c0.9-0.9,1.9-1.7,3.1-2.4c1.1-0.7,2.3-1.2,3.6-1.5c1.3-0.4,2.6-0.5,4-0.5
		c1.6,0,3.1,0.2,4.5,0.7C166.4,125.5,167.7,126.1,169,127L169,127z"/>
	<path fill="#ffffff" d="M170.9,141.6c0-1.2,0.2-2.4,0.5-3.5c0.3-1.1,0.7-2.1,1.3-3.1c0.6-1,1.2-1.8,2-2.6c0.8-0.8,1.7-1.5,2.6-2
		c1-0.6,2-1,3.1-1.3c1.1-0.3,2.2-0.5,3.4-0.5c1.2,0,2.3,0.2,3.4,0.5c1.1,0.3,2.1,0.7,3.1,1.3c1,0.6,1.8,1.2,2.6,2
		c0.8,0.8,1.5,1.7,2,2.6c0.6,1,1,2,1.3,3.1c0.3,1.1,0.5,2.3,0.5,3.5c0,1.2-0.2,2.3-0.5,3.5c-0.3,1.1-0.7,2.1-1.3,3.1
		c-0.6,1-1.2,1.8-2,2.6c-0.8,0.8-1.7,1.5-2.6,2c-1,0.6-2,1-3.1,1.3c-1.1,0.3-2.3,0.5-3.4,0.5c-1.2,0-2.3-0.2-3.4-0.5
		c-1.1-0.3-2.1-0.7-3.1-1.3c-1-0.6-1.8-1.2-2.6-2c-0.8-0.8-1.5-1.7-2-2.6c-0.6-1-1-2-1.3-3.1C171.1,144,170.9,142.8,170.9,141.6
		L170.9,141.6z M176.5,141.6c0,1.1,0.2,2,0.6,3c0.4,0.9,0.9,1.8,1.5,2.5c0.7,0.7,1.4,1.3,2.3,1.7c0.9,0.4,1.9,0.6,3,0.6
		c1,0,2-0.2,2.9-0.6c0.9-0.4,1.7-1,2.3-1.7c0.6-0.7,1.1-1.5,1.5-2.5c0.4-0.9,0.5-1.9,0.5-3c0-1-0.2-2-0.5-3
		c-0.4-0.9-0.9-1.8-1.5-2.5c-0.6-0.7-1.4-1.3-2.3-1.7c-0.9-0.4-1.9-0.6-2.9-0.6c-1.1,0-2.1,0.2-3,0.6c-0.9,0.4-1.7,1-2.3,1.7
		c-0.7,0.7-1.2,1.5-1.5,2.5C176.7,139.6,176.5,140.6,176.5,141.6L176.5,141.6z"/>
	<path fill="#ffffff" d="M201.1,130.3c0-0.3,0.1-0.6,0.3-0.9c0.2-0.2,0.5-0.3,0.9-0.3h3.3c0.1,0,0.3,0,0.4,0.1
		c0.2,0.1,0.3,0.1,0.4,0.3c0.1,0.1,0.2,0.2,0.3,0.4c0.1,0.1,0.1,0.3,0.1,0.5v22.7c0,0.8-0.4,1.2-1.2,1.2h-3.3
		c-0.8,0-1.2-0.4-1.2-1.2V130.3L201.1,130.3z"/>
	<path fill="#ffffff" d="M213.1,129.6c0.2-0.2,0.3-0.3,0.5-0.4c0.1-0.1,0.3-0.2,0.5-0.2c0.2,0,0.4,0,0.6,0h2c0.4,0,0.7,0.1,0.8,0.4
		s0.3,0.5,0.4,0.8l0.2,2.1c0.3-0.4,0.7-0.9,1.1-1.3c0.4-0.4,1-0.8,1.6-1.2c0.6-0.3,1.3-0.6,2.1-0.8c0.8-0.2,1.7-0.3,2.6-0.3
		c1.6,0,2.9,0.3,4.1,0.8c1.2,0.6,2.2,1.3,3.1,2.3c0.8,1,1.5,2.1,1.9,3.4c0.4,1.3,0.6,2.7,0.6,4.2v13.2c0,0.5-0.1,0.8-0.3,1.1
		c-0.2,0.2-0.5,0.4-1,0.4h-3c-0.5,0-0.9-0.1-1.1-0.3c-0.2-0.2-0.3-0.5-0.3-1v-13.1c0-0.7-0.1-1.4-0.4-2c-0.2-0.7-0.6-1.3-1-1.8
		c-0.5-0.5-1-0.9-1.7-1.3c-0.7-0.3-1.4-0.5-2.3-0.5c-0.6,0-1.2,0.1-1.9,0.4c-0.7,0.2-1.2,0.6-1.8,1c-0.5,0.4-1,1-1.3,1.6
		c-0.4,0.6-0.5,1.4-0.6,2.2V152c0,0.3,0,0.5,0,0.7c0,0.3-0.1,0.5-0.2,0.7c-0.1,0.2-0.2,0.4-0.4,0.5c-0.2,0.1-0.4,0.2-0.6,0.2h-3.3
		c-0.4,0-0.8-0.1-1-0.3c-0.2-0.2-0.3-0.5-0.3-0.9v-22.7C212.8,130,212.9,129.8,213.1,129.6L213.1,129.6z"/>
	<path fill="#ffffff" d="M84.1,123.4c0,1.7-1.4,3.1-3.1,3.1c-1.7,0-3.1-1.4-3.1-3.1c0-1.7,1.4-3.1,3.1-3.1
		C82.7,120.3,84.1,121.7,84.1,123.4L84.1,123.4z"/>
	<path fill="#ffffff" d="M207.1,123.4c0,1.7-1.4,3.1-3.1,3.1c-1.7,0-3.1-1.4-3.1-3.1c0-1.7,1.4-3.1,3.1-3.1
		C205.7,120.3,207.1,121.7,207.1,123.4L207.1,123.4z"/>
</g>
</svg>
