<?xml version="1.0" encoding="utf-8"?>
<!-- Generator: Adobe Illustrator 16.0.0, SVG Export Plug-In . SVG Version: 6.00 Build 0)  -->
<!DOCTYPE svg PUBLIC "-//W3C//DTD SVG 1.1//EN" "http://www.w3.org/Graphics/SVG/1.1/DTD/svg11.dtd">
<svg version="1.1" id="zip" xmlns="http://www.w3.org/2000/svg" xmlns:xlink="http://www.w3.org/1999/xlink" x="0px" y="0px"
	 width="50px" height="50px" viewBox="0 0 50 50" enable-background="new 0 0 50 50" xml:space="preserve">
<g>
	<path d="M28.25,18.292c0-4.418-3.582-8-8-8s-8,3.582-8,8v11.042h16V18.292z"/>
	<path d="M34.25,10.292h-9.473c2.785,1.583,4.673,4.573,4.673,8v12.125H7.75v1.5h34.5v-0.583v-0.917V18.292
		C42.25,13.873,38.668,10.292,34.25,10.292z"/>
	<rect x="26.125" y="32.959" width="5.125" height="6.75"/>
	<path fill="#FFFFFF" d="M34.5,17.311c-0.239-0.432-0.694-0.727-1.223-0.727c-0.774,0-1.402,0.628-1.402,1.403
		c0,0.774,0.628,1.402,1.402,1.402c0.571,0,1.06-0.342,1.278-0.831h2.93v2.805h2.39v-2.805V17.83v-0.52H34.5z"/>
</g>
</svg>
