<?xml version="1.0" encoding="utf-8"?>
<!-- Generator: Adobe Illustrator 16.0.0, SVG Export Plug-In . SVG Version: 6.00 Build 0)  -->
<!DOCTYPE svg PUBLIC "-//W3C//DTD SVG 1.1//EN" "http://www.w3.org/Graphics/SVG/1.1/DTD/svg11.dtd">
<svg version="1.1" id="user" xmlns="http://www.w3.org/2000/svg" xmlns:xlink="http://www.w3.org/1999/xlink" x="0px" y="0px"
	 width="50px" height="50px" viewBox="0 0 50 50" enable-background="new 0 0 50 50" xml:space="preserve">
<path d="M30.459,28.447V28.44c-0.629-0.206-1.094-0.945-1.094-1.36c0-0.288-0.007-1.15-0.013-1.806
	C32.123,23.079,34,19.065,34,15.521c0-5.194-4.029-9.405-9-9.405s-9,4.211-9,9.405c0,3.544,1.877,7.558,4.646,9.753
	c-0.005,0.654-0.012,1.517-0.012,1.806c0,0.416-0.468,1.154-1.094,1.36v0.007C13.397,30.19,9,35.42,9,37.521c0,0.433,0,1.067,0,1.5
	c0,2.686,7.164,4.862,16,4.862c8.836,0,16-2.177,16-4.862c0-0.433,0-1.067,0-1.5C41,35.42,36.603,30.19,30.459,28.447z"/>
</svg>
