<?xml version="1.0" encoding="utf-8"?>
<!-- Generator: Adobe Illustrator 16.0.0, SVG Export Plug-In . SVG Version: 6.00 Build 0)  -->
<!DOCTYPE svg PUBLIC "-//W3C//DTD SVG 1.1//EN" "http://www.w3.org/Graphics/SVG/1.1/DTD/svg11.dtd">
<svg version="1.1" id="phone" xmlns="http://www.w3.org/2000/svg" xmlns:xlink="http://www.w3.org/1999/xlink" x="0px" y="0px"
	 width="50px" height="50px" viewBox="0 0 50 50" enable-background="new 0 0 50 50" xml:space="preserve">
<path d="M41.484,34.538c0.07,0.535-0.093,1.001-0.489,1.396l-4.645,4.61c-0.211,0.233-0.484,0.432-0.822,0.596
	c-0.338,0.163-0.67,0.269-0.996,0.313c-0.023,0-0.092,0.006-0.209,0.018c-0.116,0.011-0.269,0.018-0.454,0.018
	c-0.443,0-1.159-0.075-2.147-0.228c-0.99-0.15-2.202-0.524-3.635-1.117c-1.433-0.596-3.057-1.484-4.874-2.672
	c-1.816-1.188-3.75-2.818-5.799-4.892c-1.63-1.607-2.981-3.144-4.052-4.612c-1.071-1.466-1.933-2.823-2.585-4.069
	c-0.651-1.246-1.141-2.375-1.467-3.389c-0.326-1.013-0.547-1.887-0.664-2.62c-0.117-0.733-0.164-1.309-0.14-1.73
	c0.023-0.418,0.035-0.651,0.035-0.698c0.046-0.326,0.151-0.658,0.314-0.996c0.163-0.338,0.361-0.611,0.594-0.821L14.096,9
	c0.326-0.326,0.698-0.489,1.118-0.489c0.302,0,0.57,0.087,0.803,0.263c0.233,0.174,0.431,0.389,0.594,0.646l3.738,7.092
	c0.209,0.373,0.268,0.78,0.175,1.223c-0.093,0.442-0.291,0.816-0.594,1.118l-1.712,1.712c-0.046,0.047-0.087,0.122-0.122,0.227
	c-0.036,0.104-0.052,0.192-0.052,0.262c0.093,0.488,0.302,1.048,0.629,1.676c0.279,0.559,0.71,1.241,1.292,2.044
	c0.583,0.803,1.41,1.73,2.481,2.777c1.048,1.072,1.979,1.904,2.795,2.499c0.815,0.593,1.497,1.03,2.044,1.31
	c0.547,0.28,0.966,0.448,1.258,0.506l0.436,0.088c0.047,0,0.123-0.017,0.227-0.054c0.104-0.034,0.181-0.074,0.228-0.121l1.992-2.026
	c0.419-0.371,0.909-0.56,1.467-0.56c0.396,0,0.71,0.071,0.942,0.211h0.036l6.742,3.982C41.1,33.688,41.392,34.072,41.484,34.538z"/>
</svg>
