<?xml version="1.0" encoding="utf-8"?>
<!-- Generator: Adobe Illustrator 16.0.0, SVG Export Plug-In . SVG Version: 6.00 Build 0)  -->
<!DOCTYPE svg PUBLIC "-//W3C//DTD SVG 1.1//EN" "http://www.w3.org/Graphics/SVG/1.1/DTD/svg11.dtd">
<svg version="1.1" id="calendar" xmlns="http://www.w3.org/2000/svg" xmlns:xlink="http://www.w3.org/1999/xlink" x="0px" y="0px"
	 width="50px" height="50px" viewBox="0 0 50 50" enable-background="new 0 0 50 50" xml:space="preserve">
<g>
	<path d="M8,41.844c0,0.553,0.447,1,1,1h32c0.553,0,1-0.447,1-1V17.469H8V41.844z M34.459,37.053h-4v-4h4V37.053z M30.458,23.052h4
		v4h-4V23.052z M30.458,28.053h4v4h-4V28.053z M29.459,37.053h-4v-4h4V37.053z M25.458,23.052h4v4h-4V23.052z M25.458,28.053h4v4h-4
		V28.053z M20.541,23.052h4v4h-4V23.052z M20.541,28.053h4v4h-4V28.053z M20.541,33.053h4v4h-4V33.053z M15.541,23.052h4v4h-4
		V23.052z M15.541,28.053h4v4h-4V28.053z M15.541,33.053h4v4h-4V33.053z"/>
	<path d="M41,10.364h-4.666V9.156c0-1.104-0.896-2-2-2c-1.105,0-2,0.896-2,2v1.208H17.666V9.156c0-1.104-0.895-2-2-2
		c-1.104,0-2,0.896-2,2v1.208H9c-0.553,0-1,0.448-1,1v5.125h34v-5.125C42,10.812,41.553,10.364,41,10.364z M14.666,9.156
		c0-0.552,0.449-1,1-1c0.553,0,1,0.448,1,1v1.208v1.792c0,0.551-0.447,1-1,1c-0.551,0-1-0.449-1-1v-1.792V9.156z M33.334,9.156
		c0-0.552,0.447-1,1-1c0.551,0,1,0.448,1,1v1.208v1.792c0,0.551-0.449,1-1,1c-0.553,0-1-0.449-1-1v-1.792V9.156z"/>
</g>
</svg>
