<?xml version="1.0" encoding="utf-8"?>
<!-- Generator: Adobe Illustrator 16.0.0, SVG Export Plug-In . SVG Version: 6.00 Build 0)  -->
<!DOCTYPE svg PUBLIC "-//W3C//DTD SVG 1.1//EN" "http://www.w3.org/Graphics/SVG/1.1/DTD/svg11.dtd">
<svg version="1.1" id="country" xmlns="http://www.w3.org/2000/svg" xmlns:xlink="http://www.w3.org/1999/xlink" x="0px" y="0px"
	 width="50px" height="50px" viewBox="0 0 50 50" enable-background="new 0 0 50 50" xml:space="preserve">
<g>
	<path fill="#ff3a3a" d="M34.146,5.72c-3.591,0-6.5,2.911-6.5,6.5c0,3.59,6.5,14.414,6.5,14.414s6.5-10.824,6.5-14.414
		C40.646,8.63,37.736,5.72,34.146,5.72z M34.146,15.415c-1.836,0-3.324-1.488-3.324-3.324c0-1.836,1.488-3.324,3.324-3.324
		s3.324,1.488,3.324,3.324C37.471,13.927,35.982,15.415,34.146,15.415z"/>
	<circle fill="#ff3a3a" cx="34.146" cy="12.091" r="1.662"/>
	<g>
		<path fill="#ff3a3a" d="M41.963,26.609c-0.102-2.319-0.664-4.513-1.604-6.5h-0.388c-1.244,2.564-2.631,5.03-3.487,6.5H41.963z"/>
		<path fill="#ff3a3a" d="M17.766,18.609h6.484v-8.171C21.537,10.939,19.151,14.122,17.766,18.609z"/>
		<path fill="#ff3a3a" d="M17.353,34.609h6.897v-6.5h-7.73C16.573,30.414,16.866,32.611,17.353,34.609z"/>
		<path fill="#ff3a3a" d="M16.52,26.609h7.73v-6.5h-6.897C16.866,22.107,16.573,24.305,16.52,26.609z"/>
		<path fill="#ff3a3a" d="M34.201,34.609h6.158c0.939-1.987,1.502-4.181,1.604-6.5h-6.369l-0.665,1.107C34.829,31.111,34.589,32.928,34.201,34.609z
			"/>
		<path fill="#ff3a3a" d="M24.25,44.28v-8.171h-6.484C19.151,40.597,21.537,43.779,24.25,44.28z"/>
		<path fill="#ff3a3a" d="M25.75,18.609h1.867c-0.894-1.979-1.616-3.906-1.867-5.386V18.609z"/>
		<path fill="#ff3a3a" d="M10.444,36.109c2.194,3.642,5.703,6.39,9.88,7.584c-1.751-1.715-3.197-4.354-4.136-7.584H10.444z"/>
		<path fill="#ff3a3a" d="M15.798,20.109H9.641c-0.94,1.987-1.501,4.181-1.603,6.5h6.983C15.07,24.312,15.335,22.117,15.798,20.109z"/>
		<path fill="#ff3a3a" d="M15.021,28.109H8.038c0.102,2.319,0.663,4.513,1.603,6.5h6.158C15.335,32.602,15.07,30.407,15.021,28.109z"/>
		<path fill="#ff3a3a" d="M29.676,43.692c4.176-1.193,7.686-3.941,9.879-7.583h-5.744C32.871,39.339,31.428,41.979,29.676,43.692z"/>
		<path fill="#ff3a3a" d="M20.325,11.025c-4.177,1.194-7.687,3.942-9.88,7.584h5.745C17.128,15.38,18.573,12.74,20.325,11.025z"/>
		<path fill="#ff3a3a" d="M25.75,28.109v6.5h6.896c0.4-1.646,0.662-3.433,0.774-5.298l-0.722-1.202H25.75z"/>
		<path fill="#ff3a3a" d="M25.75,20.109v6.5h6.059c-0.856-1.47-2.243-3.936-3.487-6.5H25.75z"/>
		<path fill="#ff3a3a" d="M25.75,36.109v8.171c2.713-0.501,5.1-3.684,6.484-8.171H25.75z"/>
		<path fill="#FFFFFF" d="M34.929,29.217l0.665-1.107h-0.615C34.971,28.483,34.948,28.849,34.929,29.217z"/>
		<path fill="#FFFFFF" d="M32.699,28.109l0.722,1.202c0.024-0.399,0.05-0.797,0.06-1.202H32.699z"/>
	</g>
</g>
</svg>
