<?xml version="1.0" encoding="utf-8"?>
<!-- Generator: Adobe Illustrator 16.0.0, SVG Export Plug-In . SVG Version: 6.00 Build 0)  -->
<!DOCTYPE svg PUBLIC "-//W3C//DTD SVG 1.1//EN" "http://www.w3.org/Graphics/SVG/1.1/DTD/svg11.dtd">
<svg version="1.1" id="pincode" xmlns="http://www.w3.org/2000/svg" xmlns:xlink="http://www.w3.org/1999/xlink" x="0px" y="0px"
	 width="50px" height="50px" viewBox="0 0 50 50" enable-background="new 0 0 50 50" xml:space="preserve">
<path d="M37,20.25h-3v-3.5c0-4.962-4.037-9-9-9s-9,4.038-9,9v3.5h-3c-1.104,0-2,0.896-2,2v18c0,1.104,0.896,2,2,2h24
	c1.105,0,2-0.896,2-2v-18C39,21.146,38.105,20.25,37,20.25z M26.25,31.736v2.514c0,0.689-0.561,1.25-1.25,1.25
	c-0.691,0-1.25-0.561-1.25-1.25v-2.514c-0.744-0.434-1.25-1.23-1.25-2.154c0-1.379,1.119-2.499,2.5-2.499s2.5,1.12,2.5,2.499
	C27.5,30.506,26.994,31.303,26.25,31.736z M32,20.25H18v-3.5c0-3.86,3.141-7,7-7s7,3.14,7,7V20.25z"/>
</svg>
