<?xml version="1.0" encoding="utf-8"?>
<!-- Generator: Adobe Illustrator 16.0.0, SVG Export Plug-In . SVG Version: 6.00 Build 0)  -->
<!DOCTYPE svg PUBLIC "-//W3C//DTD SVG 1.1//EN" "http://www.w3.org/Graphics/SVG/1.1/DTD/svg11.dtd">
<svg version="1.1" id="close" xmlns="http://www.w3.org/2000/svg" xmlns:xlink="http://www.w3.org/1999/xlink" x="0px" y="0px"
	 width="50px" height="50px" viewBox="0 0 50 50" enable-background="new 0 0 50 50" xml:space="preserve">
<path d="M27.828,25l8.586-8.586c0.781-0.781,0.781-2.048,0-2.828c-0.781-0.781-2.049-0.781-2.828,0L25,22.172l-8.586-8.586
	c-0.781-0.781-2.049-0.781-2.828,0c-0.781,0.78-0.781,2.047,0,2.828L22.172,25l-8.586,8.586c-0.781,0.78-0.781,2.047,0,2.828
	C13.976,36.805,14.488,37,15,37s1.023-0.195,1.414-0.586L25,27.828l8.586,8.586C33.976,36.805,34.488,37,35,37
	s1.023-0.195,1.414-0.586c0.781-0.781,0.781-2.048,0-2.828L27.828,25z"/>
</svg>
