<?xml version="1.0" encoding="utf-8"?>
<!-- Generator: Adobe Illustrator 16.0.0, SVG Export Plug-In . SVG Version: 6.00 Build 0)  -->
<!DOCTYPE svg PUBLIC "-//W3C//DTD SVG 1.1//EN" "http://www.w3.org/Graphics/SVG/1.1/DTD/svg11.dtd">
<svg version="1.1" id="handle" xmlns="http://www.w3.org/2000/svg" xmlns:xlink="http://www.w3.org/1999/xlink" x="0px" y="0px"
	 width="50px" height="50px" viewBox="0 0 50 50" enable-background="new 0 0 50 50" xml:space="preserve">
<g>
	<path fill="#ff3a3a" d="M43.781,15.507c0-0.897-0.728-1.625-1.625-1.625h-0.813c-0.05,0-0.097,0.01-0.145,0.015
		c-1.556-0.845-3.805-1.027-6.313-1.027c-3.024,0-5.674,0.262-7.18,1.637c-0.67-0.403-1.482-0.645-2.362-0.645
		c-0.88,0-1.692,0.241-2.362,0.645c-1.506-1.375-4.155-1.637-7.18-1.637c-2.62,0-4.961,0.193-6.521,1.138
		c-0.192-0.081-0.404-0.125-0.625-0.125H7.844c-0.898,0-1.625,0.728-1.625,1.625c0,0.729,0.483,1.338,1.146,1.544
		c-0.038,0.281-0.063,0.575-0.063,0.893c0,4.46,3.806,8.076,8.5,8.076s8.5-3.616,8.5-8.076c0-1.011-0.204-1.815-0.561-2.469
		c0.494-0.185,1.032-0.297,1.603-0.297s1.109,0.112,1.604,0.297c-0.357,0.654-0.562,1.458-0.562,2.469c0,4.46,3.806,8.076,8.5,8.076
		s8.5-3.616,8.5-8.076c0-0.459-0.05-0.869-0.127-1.25C43.578,16.398,43.781,15.978,43.781,15.507z"/>
	<path fill="#ff3a3a" d="M36.366,28.653c0.563,2.438-0.719,4.039-2.906,3.906c-3.094-0.188-3.688-4.969-5.906-5.219
		c-1.762-0.198-2.508,1.031-2.554,1.11c-0.046-0.079-0.793-1.309-2.554-1.11c-2.219,0.25-2.813,5.031-5.906,5.219
		c-2.187,0.133-3.469-1.469-2.906-3.906c0,0-3.25,2.5-1.5,5.688c1.749,3.186,7.93,4.311,12.866-0.242
		c4.937,4.553,11.117,3.428,12.866,0.242C39.616,31.153,36.366,28.653,36.366,28.653z"/>
</g>
</svg>
