<?xml version="1.0" ?><svg height="24px" version="1.1" viewBox="0 0 24 24" width="24px" xmlns="http://www.w3.org/2000/svg" xmlns:sketch="http://www.bohemiancoding.com/sketch/ns" xmlns:xlink="http://www.w3.org/1999/xlink"><title/><desc/><defs/><g fill="none" fill-rule="evenodd" id="miu" stroke="none" stroke-width="1"><g id="Artboard-1" transform="translate(-323.000000, -335.000000)"><g id="slice" transform="translate(215.000000, 119.000000)"/><path d="M324,339 L324,354 L346,354 L346,339 L324,339 L324,339 Z M326,341 L326,342 L334,342 L334,341 L326,341 L326,341 Z M326,343 L326,344 L334,344 L334,343 L326,343 L326,343 Z M336,349 L336,350 L344,350 L344,349 L336,349 L336,349 Z M336,351 L336,352 L344,352 L344,351 L336,351 L336,351 Z M341,341 L341,344 L344,344 L344,341 L341,341 L341,341 Z" fill="#ff3a3a" id="common-envelope-mail-glyph"/></g></g></svg>