<svg xmlns="http://www.w3.org/2000/svg" xmlns:xlink="http://www.w3.org/1999/xlink" width="22" height="24" viewBox="0 0 22 24">
    <defs>
        <path id="a" d="M19.859 12.602c.045-.36.078-.72.078-1.102 0-.383-.033-.742-.078-1.102l2.373-1.857a.568.568 0 0 0 .136-.72l-2.25-3.892c-.135-.248-.44-.338-.687-.248L16.63 4.806a8.22 8.22 0 0 0-1.901-1.102L14.3.722A.549.549 0 0 0 13.75.25h-4.5a.549.549 0 0 0-.551.473l-.428 2.98A8.643 8.643 0 0 0 6.37 4.807L3.569 3.681a.549.549 0 0 0-.687.248L.632 7.82a.555.555 0 0 0 .135.72l2.374 1.857c-.045.36-.079.73-.079 1.102 0 .371.034.742.08 1.102L.767 14.46a.568.568 0 0 0-.136.72l2.25 3.892c.135.248.44.338.687.248l2.801-1.125a8.22 8.22 0 0 0 1.901 1.102l.428 2.982c.034.27.27.472.551.472h4.5a.549.549 0 0 0 .551-.473l.428-2.98a8.643 8.643 0 0 0 1.901-1.103l2.801 1.125c.259.101.552 0 .686-.248l2.25-3.892a.568.568 0 0 0-.134-.72l-2.374-1.857zM11.5 15.438A3.942 3.942 0 0 1 7.562 11.5 3.942 3.942 0 0 1 11.5 7.562a3.942 3.942 0 0 1 3.938 3.938 3.942 3.942 0 0 1-3.938 3.938z"/>
    </defs>
    <use fill="#BF1817" fill-rule="evenodd" transform="translate(-.51 .582)" xlink:href="#a"/>
</svg>
