<svg xmlns="http://www.w3.org/2000/svg" width="38" height="26" viewBox="0 0 38 26">
    <g fill="#000" fill-rule="evenodd">
        <path d="M33.85-.004H3.431A3.437 3.437 0 0 0 0 3.43v18.723a3.436 3.436 0 0 0 3.432 3.432H33.85a3.436 3.436 0 0 0 3.433-3.432V3.429a3.437 3.437 0 0 0-3.433-3.433zm1.286 22.156c0 .71-.576 1.287-1.287 1.287H3.432c-.71 0-1.287-.578-1.287-1.287V3.429c0-.71.578-1.287 1.287-1.287H33.85c.71 0 1.287.577 1.287 1.287v18.723z"/>
        <path d="M30.9 6.121h-9.86a.858.858 0 1 0 0 1.716h9.86a.858.858 0 1 0 0-1.716zM30.9 17.744h-9.86a.858.858 0 1 0 0 1.715h9.86a.858.858 0 1 0 0-1.715zM30.9 11.085h-5.967a.859.859 0 0 0 0 1.717h5.966a.859.859 0 0 0 0-1.717zM30.9 14.414h-5.967a.858.858 0 0 0 0 1.716h5.966a.858.858 0 1 0 0-1.716zM12.18 13.192c2.433 0 4.411-1.98 4.411-4.413a4.416 4.416 0 0 0-4.41-4.412 4.417 4.417 0 0 0-4.412 4.412 4.417 4.417 0 0 0 4.411 4.413zm0-6.68a2.269 2.269 0 0 1 2.266 2.267 2.269 2.269 0 0 1-2.266 2.267A2.27 2.27 0 0 1 9.914 8.78a2.27 2.27 0 0 1 2.266-2.267zM13.887 13.984H10.5a4.308 4.308 0 0 0-4.303 4.304v1.853a1.072 1.072 0 1 0 2.145 0v-1.853A2.16 2.16 0 0 1 10.5 16.13h3.387a2.16 2.16 0 0 1 2.159 2.158v1.853a1.072 1.072 0 1 0 2.145 0v-1.853a4.309 4.309 0 0 0-4.304-4.304z"/>
    </g>
</svg>
