<svg xmlns="http://www.w3.org/2000/svg" width="26" height="28" viewBox="0 0 26 28">
    <g fill="#BF1817" fill-rule="evenodd">
        <path d="M24.98 26.908h-1.152V10.179c0-.778-.634-1.412-1.412-1.412H19.84c-.778 0-1.412.634-1.412 1.412v16.729h-2.925v-9.15c0-.778-.634-1.411-1.412-1.411h-2.575c-.78 0-1.413.633-1.413 1.412v9.149H7.178V22.17c0-.78-.633-1.413-1.412-1.413H3.19c-.779 0-1.412.634-1.412 1.413v4.738H.564a.525.525 0 1 0 0 1.05H24.98a.525.525 0 1 0 0-1.05z"/>
        <path stroke="#BF1817" d="M5.068 15.689a.524.524 0 0 0 .372-.154l9.072-9.072 1.958 1.958a.525.525 0 0 0 .743 0l5.564-5.564v1.776a.525.525 0 1 0 1.05 0V1.641v-.025a.523.523 0 0 0-.552-.551l-.025-.001h-3.178a.525.525 0 1 0 0 1.05h1.962l-5.193 5.193-1.958-1.958a.525.525 0 0 0-.743 0l-9.443 9.443a.525.525 0 0 0 .371.897"/>
    </g>
</svg>
