<svg xmlns="http://www.w3.org/2000/svg" width="34" height="38" viewBox="0 0 34 38">
    <g fill="#000" fill-rule="evenodd">
        <path stroke="#000" d="M31.47 33.36a2.229 2.229 0 0 1-2.226 2.227 2.229 2.229 0 0 1-2.227-2.226V19.864h4.453v13.497zm-29.079 0V3.737L3.666 5.01a.696.696 0 0 0 .983 0L6.62 3.04l1.97 1.97a.696.696 0 0 0 .985 0l1.97-1.97 1.971 1.97a.696.696 0 0 0 .984 0l1.97-1.97 1.971 1.97a.696.696 0 0 0 .984 0l1.971-1.97 1.97 1.97a.696.696 0 0 0 .984 0l1.276-1.275V33.36c0 .839.289 1.611.77 2.226H4.618A2.229 2.229 0 0 1 2.39 33.36zm29.774-14.887h-5.149V2.055a.696.696 0 0 0-1.187-.492l-1.97 1.971-1.971-1.97a.696.696 0 0 0-.984 0l-1.971 1.97-1.97-1.97a.696.696 0 0 0-.984 0l-1.971 1.97-1.97-1.97a.696.696 0 0 0-.985 0l-1.97 1.97-1.971-1.97a.696.696 0 0 0-.984 0l-1.97 1.97-1.971-1.97A.695.695 0 0 0 1 2.073V33.36a3.622 3.622 0 0 0 3.618 3.617h24.625a3.622 3.622 0 0 0 3.618-3.617V19.169a.696.696 0 0 0-.696-.696z"/>
        <path d="M14.008 15.946c-.69 0-1.252-.48-1.252-1.072a.696.696 0 1 0-1.391 0c0 1.134.827 2.091 1.948 2.376v.568a.696.696 0 1 0 1.391 0v-.568c1.121-.285 1.948-1.242 1.948-2.376 0-1.358-1.186-2.463-2.644-2.463-.69 0-1.252-.481-1.252-1.072 0-.591.562-1.072 1.252-1.072s1.252.48 1.252 1.072a.696.696 0 0 0 1.392 0c0-1.134-.827-2.091-1.948-2.377v-.47a.696.696 0 1 0-1.391 0v.47c-1.121.286-1.948 1.243-1.948 2.377 0 1.358 1.186 2.463 2.643 2.463.69 0 1.252.481 1.252 1.072 0 .591-.561 1.072-1.252 1.072M19.642 13.802h1.355a.696.696 0 1 0 0-1.391h-1.355a.696.696 0 1 0 0 1.391M8.375 12.41H7.02a.696.696 0 1 0 0 1.392h1.356a.696.696 0 1 0 0-1.391M21.35 20.143H10.327a.696.696 0 0 0 0 1.392H21.35a.696.696 0 1 0 0-1.392M6.667 20.143a.7.7 0 0 0-.492.204.7.7 0 0 0-.204.492.7.7 0 0 0 .204.492.7.7 0 0 0 .492.204.7.7 0 0 0 .492-.204.7.7 0 0 0 .204-.492.7.7 0 0 0-.204-.492.7.7 0 0 0-.492-.204M21.35 24.735H10.327a.696.696 0 0 0 0 1.39H21.35a.696.696 0 1 0 0-1.39M6.667 24.735a.7.7 0 0 0-.492.203.7.7 0 0 0-.204.492.7.7 0 0 0 .204.492.7.7 0 0 0 .492.204.7.7 0 0 0 .492-.204.7.7 0 0 0 .204-.492.7.7 0 0 0-.204-.492.7.7 0 0 0-.492-.203M21.35 29.326H10.327a.696.696 0 0 0 0 1.391H21.35a.696.696 0 1 0 0-1.391M6.667 29.326a.7.7 0 0 0-.492.204.7.7 0 0 0-.204.492.7.7 0 0 0 .204.491c.13.13.31.204.492.204a.701.701 0 0 0 .492-.204.7.7 0 0 0 .204-.491.7.7 0 0 0-.204-.492.7.7 0 0 0-.492-.204"/>
    </g>
</svg>
