<svg xmlns="http://www.w3.org/2000/svg" width="43" height="47" viewBox="0 0 43 47">
    <g fill="#000" fill-rule="evenodd">
        <path d="M36.138 23.733l-.14.301a68.969 68.969 0 0 1-1.017-1.786c-1.135-2.034-2.69-4.819-4.3-6.991l-.032-.043c-1.601-1.98-3.379-2.942-5.436-2.942-.672 0-1.376.106-2.092.318-2.436.718-2.811 2.257-2.86 2.883-.094 1.209.835 3.481 3.323 4.658l.001 1.802c1.236-.332 2.752-.996 2.874-1.987.1-.82-.322-1.608-1.07-1.963-2.217-1.052-2.623-1.977-2.588-2.312.156-1.494 3.295-2.027 5.85 1.124 1.506 2.039 3.008 4.728 4.105 6.694.355.636.663 1.187.918 1.622l-7.29 15.73a7.392 7.392 0 0 0-1.981-.281c-.395 0-.758.032-1.11.064-.388.035-.79.071-1.303.071-.342 0-.698-.015-1.09-.048-2.322-.19-6.048-2.002-7.752-2.965-.841-.62-.92-1.02-.765-1.84H9.81c-.142 1.213.068 2.625 1.902 3.946l.056.04.059.033c.545.311 5.43 3.044 8.865 3.325.461.038.886.057 1.298.057.628 0 1.108-.044 1.534-.082.321-.029.599-.054.88-.054.461 0 1.048.059 2.207.483l.249.099-.13.28 6.335 2.946 9.41-20.235-6.337-2.947z"/>
        <path d="M22.4 30.952v-9.636l-.684-.481a7.334 7.334 0 0 1-1.842-1.545v8.879H3.526V6.73h16.348v5.968c.519-.435 1.217-.83 2.162-1.108.121-.036.243-.068.364-.099V3.947c0-2.01.37-3.64-1.64-3.64H2.64C.63.308 1 1.938 1 3.948v27.005c0 2.01-.37 3.64 1.64 3.64h18.12c2.01 0 1.64-1.63 1.64-3.64zM17.474 3.665a.78.78 0 1 1 0 1.56.78.78 0 0 1 0-1.56zM8.322 5.086h6.756V3.811H8.322v1.275zM11.7 31.789a1.359 1.359 0 1 1-.001-2.718 1.359 1.359 0 0 1 .001 2.718z"/>
    </g>
</svg>
