<svg xmlns="http://www.w3.org/2000/svg" width="33" height="26" viewBox="0 0 33 26">
    <path fill="#BF1817" fill-rule="evenodd" d="M23.897.994a1.152 1.152 0 0 0-1.967.814v3.457h-8.066a1.152 1.152 0 0 0 0 2.305h9.218c.637 0 1.153-.516 1.153-1.152V4.59l5.284 5.285-5.284 5.284v-1.827c0-.637-.516-1.153-1.153-1.153H10.407V8.722a1.152 1.152 0 0 0-1.967-.814L.373 15.974c-.45.45-.45 1.18 0 1.63L8.44 25.67a1.152 1.152 0 0 0 1.967-.815v-3.457h8.066a1.152 1.152 0 1 0 0-2.305H9.254c-.636 0-1.152.516-1.152 1.153v1.827L2.817 16.79l5.285-5.285v1.828c0 .636.516 1.152 1.152 1.152H21.93v3.457a1.152 1.152 0 0 0 1.967.815l8.066-8.067c.45-.45.45-1.18 0-1.629L23.897.994"/>
</svg>
