<svg xmlns="http://www.w3.org/2000/svg" width="100" height="99" viewBox="0 0 100 99">
    <g fill="#BF0A0A" fill-rule="evenodd">
        <path d="M49.873 25.47a4.244 4.244 0 0 1-4.232-4.232V4.31A4.244 4.244 0 0 1 49.873.078a4.244 4.244 0 0 1 4.232 4.232v16.928a4.244 4.244 0 0 1-4.232 4.232" opacity=".65"/>
        <path d="M61.864 28.683a4.244 4.244 0 0 1-1.55-5.781l8.465-14.66a4.244 4.244 0 0 1 5.78-1.548 4.244 4.244 0 0 1 1.55 5.78l-8.464 14.66a4.244 4.244 0 0 1-5.781 1.549" opacity=".75"/>
        <path d="M70.641 37.46a4.244 4.244 0 0 1 1.55-5.78l14.659-8.464a4.244 4.244 0 0 1 5.78 1.549 4.244 4.244 0 0 1-1.548 5.78l-14.66 8.464a4.244 4.244 0 0 1-5.78-1.548" opacity=".85"/>
        <path d="M73.854 49.451a4.244 4.244 0 0 1 4.232-4.232h16.928a4.244 4.244 0 0 1 4.232 4.232 4.244 4.244 0 0 1-4.232 4.232H78.086a4.244 4.244 0 0 1-4.232-4.232" opacity=".9"/>
        <path d="M70.641 61.442a4.244 4.244 0 0 1 5.781-1.55l14.66 8.465a4.244 4.244 0 0 1 1.549 5.78 4.244 4.244 0 0 1-5.781 1.55l-14.66-8.464a4.244 4.244 0 0 1-1.549-5.781" opacity=".2"/>
        <path d="M61.864 70.22a4.244 4.244 0 0 1 5.78 1.548l8.464 14.66a4.244 4.244 0 0 1-1.548 5.78 4.244 4.244 0 0 1-5.781-1.548L60.315 76a4.244 4.244 0 0 1 1.549-5.78" opacity=".25"/>
        <path d="M49.873 73.432a4.244 4.244 0 0 1 4.232 4.232v16.928a4.244 4.244 0 0 1-4.232 4.232 4.244 4.244 0 0 1-4.232-4.232V77.664a4.244 4.244 0 0 1 4.232-4.232" opacity=".3"/>
        <path d="M37.882 70.22a4.244 4.244 0 0 1 1.55 5.78l-8.465 14.66a4.244 4.244 0 0 1-5.78 1.549 4.244 4.244 0 0 1-1.55-5.781l8.465-14.66a4.244 4.244 0 0 1 5.78-1.549" opacity=".35"/>
        <path d="M29.105 61.442a4.244 4.244 0 0 1-1.55 5.78l-14.659 8.465a4.244 4.244 0 0 1-5.78-1.55 4.244 4.244 0 0 1 1.548-5.78l14.66-8.464a4.244 4.244 0 0 1 5.78 1.549" opacity=".4"/>
        <path d="M25.892 49.451a4.244 4.244 0 0 1-4.232 4.232H4.732A4.244 4.244 0 0 1 .5 49.451a4.244 4.244 0 0 1 4.232-4.232H21.66a4.244 4.244 0 0 1 4.232 4.232" opacity=".45"/>
        <path d="M29.105 37.46a4.244 4.244 0 0 1-5.781 1.55l-14.66-8.464a4.244 4.244 0 0 1-1.549-5.781 4.244 4.244 0 0 1 5.781-1.55l14.66 8.465a4.244 4.244 0 0 1 1.549 5.78" opacity=".5"/>
        <path d="M37.882 28.683a4.244 4.244 0 0 1-5.78-1.549l-8.464-14.66a4.244 4.244 0 0 1 1.549-5.78 4.244 4.244 0 0 1 5.78 1.548l8.464 14.66a4.244 4.244 0 0 1-1.549 5.78" opacity=".55"/>
    </g>
</svg>
