<svg xmlns="http://www.w3.org/2000/svg" xmlns:xlink="http://www.w3.org/1999/xlink" width="141" height="171" viewBox="0 0 141 171">
    <defs>
        <linearGradient id="a" x1="50%" x2="50%" y1="-30.442%" y2="124.683%">
            <stop offset="0%" stop-color="#CFCFCF"/>
            <stop offset="100%" stop-color="#F2F2F2"/>
        </linearGradient>
        <linearGradient id="b" x1="50%" x2="50%" y1="252.839%" y2="20.39%">
            <stop offset="0%" stop-color="#FFF" stop-opacity=".543"/>
            <stop offset="100%" stop-color="#F2F2F2"/>
        </linearGradient>
        <linearGradient id="e" x1="50%" x2="50%" y1="-84.802%" y2="44.607%">
            <stop offset="0%" stop-color="#DCDCDC"/>
            <stop offset="100%" stop-color="#D5BEBF"/>
        </linearGradient>
        <path id="d" d="M21.276 24.73v36.84H11.33l21.536 21.537 21.537-21.536h-9.947V24.729z"/>
        <filter id="c" width="192.9%" height="168.5%" x="-60.4%" y="-41.1%" filterUnits="objectBoundingBox">
            <feMorphology in="SourceAlpha" radius="1" result="shadowSpreadOuter1"/>
            <feOffset dx="-6" dy="-4" in="shadowSpreadOuter1" result="shadowOffsetOuter1"/>
            <feGaussianBlur in="shadowOffsetOuter1" result="shadowBlurOuter1" stdDeviation="6"/>
            <feColorMatrix in="shadowBlurOuter1" values="0 0 0 0 0 0 0 0 0 0 0 0 0 0 0 0 0 0 0.303385417 0"/>
        </filter>
    </defs>
    <g fill="none" fill-rule="evenodd">
        <g opacity=".404">
            <path fill="url(#a)" d="M68.378 17.057c-.35 0-.696.013-1.04.036-1.16-6.74-7.033-11.87-14.106-11.87a14.253 14.253 0 0 0-8.615 2.882C42.027 3.535 37.12.451 31.491.451c-8.328 0-15.08 6.751-15.08 15.08 0 .527.028 1.048.081 1.562a15.343 15.343 0 0 0-1.035-.036C7.13 17.057.378 23.808.378 32.137c0 8.327 6.752 15.078 15.08 15.078h52.92c8.328 0 15.079-6.75 15.079-15.079 0-8.328-6.751-15.079-15.08-15.079" transform="translate(-.318 35.803)"/>
            <path fill="#CFC6C7" fill-rule="nonzero" d="M91.224 142.222c-5.512 4.773-12.64 7.655-20.414 7.655-17.435 0-31.62-14.486-31.62-32.286 0-17.803 14.184-32.288 31.62-32.288 7.736 0 14.83 2.854 20.33 7.582l19.25-11.394a55.76 55.76 0 0 0-2.054-2.22c-4.874-4.976-10.549-8.882-16.867-11.614a52.06 52.06 0 0 0-10.076-3.183V74.5c0 .155-.023.301-.068.44-.312 1.548-4.9 2.775-10.515 2.775s-10.204-1.227-10.514-2.775a1.39 1.39 0 0 1-.07-.44V64.474a51.999 51.999 0 0 0-10.073 3.183c-6.32 2.732-11.996 6.638-16.87 11.615a53.284 53.284 0 0 0-2.217 2.41l8.492 5.005c.13.078.242.173.337.28 1.156 1.048-.096 5.721-2.905 10.684-2.806 4.964-6.141 8.41-7.61 7.912a1.32 1.32 0 0 1-.406-.159l-8.507-5.014a55.022 55.022 0 0 0-2.728 17.201c0 5.91.916 11.676 2.729 17.2l8.507-5.014c.129-.079.268-.13.406-.161 1.469-.498 4.804 2.946 7.611 7.913 2.807 4.963 4.06 9.636 2.904 10.683a1.387 1.387 0 0 1-.337.28l-8.493 5.007c.713.823 1.451 1.627 2.218 2.41 4.874 4.975 10.55 8.882 16.87 11.613a51.79 51.79 0 0 0 10.073 3.183v-10.226c0-.155.024-.303.07-.44.31-1.547 4.9-2.775 10.514-2.775 5.615 0 10.203 1.228 10.515 2.775.045.137.068.285.068.44v10.226a51.788 51.788 0 0 0 10.075-3.182c6.318-2.731 11.993-6.638 16.868-11.614a54.552 54.552 0 0 0 2.173-2.356l-19.286-11.33z"/>
        </g>
        <path fill="url(#b)" d="M127.037 17.314c-.35 0-.695.013-1.039.037-1.16-6.742-7.034-11.87-14.106-11.87a14.253 14.253 0 0 0-8.615 2.881C100.686 3.792 95.779.708 90.15.708c-8.328 0-15.079 6.752-15.079 15.08 0 .527.028 1.049.08 1.562a15.343 15.343 0 0 0-1.034-.036c-8.328 0-15.08 6.752-15.08 15.08 0 8.327 6.752 15.079 15.08 15.079h52.92c8.328 0 15.08-6.752 15.08-15.08 0-8.327-6.752-15.079-15.08-15.079" transform="translate(-1.285 -.335)"/>
        <path fill="#BF1817" fill-rule="nonzero" d="M83.615 114.56c-1.485-1.861-7.257-8.593-9.304-11.421a43.3 43.3 0 0 1-3.385-5.577v-.08s-.006.015-.02.04l-.017-.04v.08a43.36 43.36 0 0 1-3.385 5.577c-2.048 2.828-7.819 9.56-9.304 11.421-1.33 1.673-3.174 4.353-3.616 7.143a7.448 7.448 0 0 0-.136 1.412c0 4.217 3.513 7.631 7.847 7.631 2.718 0 5.113-1.344 6.522-3.387.233.286 1.174 1.76-.593 5.42-1.985 4.116-3.372 4.919-3.372 4.919H76.96s-1.386-.803-3.374-4.92c-1.763-3.659-.823-5.133-.59-5.42 1.409 2.045 3.803 3.388 6.522 3.388 4.333 0 7.846-3.414 7.846-7.631 0-.481-.048-.955-.135-1.412-.442-2.79-2.285-5.47-3.615-7.143"/>
        <g>
            <path fill="#842525" d="M102.03 20.558H74.817c-3.296 0-5.97 2.706-5.97 6.038v65.905c0 3.335 2.674 6.04 5.97 6.04h27.215c3.295 0 5.966-2.705 5.966-6.04V26.596c0-3.332-2.67-6.038-5.966-6.038"/>
            <path fill="#FEFEFE" d="M83.29 25.218h10.26a.53.53 0 0 1 .524.53.529.529 0 0 1-.523.533H83.29a.526.526 0 0 1-.521-.533c0-.29.232-.53.52-.53"/>
            <path fill="#D20008" d="M71.465 91.283h33.917v-61.7H71.465z"/>
            <path fill="#D20008" d="M85.922 60.895c0-1.399 1.12-2.532 2.501-2.532 1.382 0 2.502 1.132 2.502 2.532 0 .928-.517 1.704-1.25 2.144v4.187c0 .7-.56 1.265-1.252 1.265-.69 0-1.25-.566-1.25-1.265v-4.187c-.734-.44-1.251-1.216-1.251-2.144"/>
            <g transform="translate(68.715 20.558)">
                <use fill="#000" filter="url(#c)" xlink:href="#d"/>
                <use fill="url(#e)" xlink:href="#d"/>
            </g>
        </g>
    </g>
</svg>
