<svg xmlns="http://www.w3.org/2000/svg" width="97" height="174" viewBox="0 0 97 174">
    <defs>
        <linearGradient id="a" x1="50%" x2="50%" y1="74.583%" y2="20.39%">
            <stop offset="0%" stop-color="#FFF" stop-opacity="0"/>
            <stop offset="100%" stop-color="#F2F2F2"/>
        </linearGradient>
    </defs>
    <g fill="none" fill-rule="evenodd">
        <path fill="#CFC6C7" fill-rule="nonzero" d="M74.224 145.222c-5.512 4.773-12.64 7.655-20.414 7.655-17.435 0-31.62-14.486-31.62-32.286 0-17.803 14.184-32.288 31.62-32.288 7.736 0 14.83 2.854 20.33 7.582L93.39 84.49a55.76 55.76 0 0 0-2.054-2.22c-4.874-4.976-10.549-8.882-16.867-11.614a52.06 52.06 0 0 0-10.076-3.183V77.5c0 .155-.023.301-.068.44-.312 1.548-4.9 2.775-10.515 2.775s-10.204-1.227-10.514-2.775a1.39 1.39 0 0 1-.07-.44V67.474a51.999 51.999 0 0 0-10.073 3.183c-6.32 2.732-11.996 6.638-16.87 11.615a53.284 53.284 0 0 0-2.217 2.41l8.492 5.005c.13.078.242.173.337.28 1.156 1.048-.096 5.721-2.905 10.684-2.806 4.964-6.141 8.41-7.61 7.912a1.32 1.32 0 0 1-.406-.159l-8.507-5.014A55.022 55.022 0 0 0 .739 120.59c0 5.91.916 11.676 2.729 17.2l8.507-5.014c.129-.079.268-.13.406-.161 1.469-.498 4.804 2.946 7.611 7.913 2.807 4.963 4.06 9.636 2.904 10.683a1.387 1.387 0 0 1-.337.28l-8.493 5.007c.713.823 1.451 1.627 2.218 2.41 4.874 4.975 10.55 8.882 16.87 11.613a51.79 51.79 0 0 0 10.073 3.183v-10.226c0-.155.024-.303.07-.44.31-1.547 4.9-2.775 10.514-2.775 5.615 0 10.203 1.228 10.515 2.775.045.137.068.285.068.44v10.226a51.788 51.788 0 0 0 10.075-3.182c6.318-2.731 11.993-6.638 16.868-11.614a54.552 54.552 0 0 0 2.173-2.356l-19.286-11.33z" opacity=".404"/>
        <path fill="url(#a)" d="M85.65 23.78s-3.392-.465-8.297-1.002c-.74-5.522-9.286-6.36-9.286-6.36l-23.364-1.709-2.93-8.282c-1.805-6.579-4.208-8.097-7.21-4.554l3.089 32.51 8.465 11.2C16.014 115.585.709 151.145.202 152.26h41.57c.458-1.327 13.092-60.849 31.701-101.309l12.177-27.17z" transform="translate(9.77 37.74)"/>
        <path fill="#F2F2F2" d="M95.287 16.793L71.52 48.708s-1.598 1.857-3.489.308l-2.092-1.712s-3.865-3.163-.601-6.957C80.363 22.532 88.7 12.805 90.347 11.166c1.852-1.876 8.204 1.833 4.94 5.627z"/>
        <path fill="#842525" d="M83.374.904H57.558c-3.126 0-5.663 2.567-5.663 5.728V69.15c0 3.163 2.537 5.73 5.663 5.73h25.816c3.126 0 5.66-2.567 5.66-5.73V6.632c0-3.16-2.534-5.728-5.66-5.728"/>
        <path fill="#FEFEFE" d="M65.597 5.325h9.733c.272 0 .496.227.496.503 0 .279-.224.505-.496.505h-9.733a.5.5 0 0 1-.494-.505.5.5 0 0 1 .494-.503"/>
        <path fill="#BF1817" d="M54.38 67.994h32.173V9.466H54.38z"/>
        <path fill="#F2F2F2" d="M94.139 30.263s3.141 2.561 0 6.224L88.494 41.8c-1.967.313-5.868-1.25-4.941-5.002l4.94-6.675s1.812-3.007 5.476 0l.17.14z"/>
        <path fill="#F2F2F2" d="M94.139 41.871s3.141 2.964 0 7.202l-5.645 6.15c-1.967.362-5.868-1.447-4.941-5.788l4.94-7.725s1.812-3.48 5.476 0l.17.161z"/>
        <path fill="#F2F2F2" d="M94.139 55.903s1.766 4.325 1.148 5.904c-4.946 2.645-7.638 4-8.076 4.064-2.114.313-5.216-3.429-2.703-6.358l2.703-3.151s3.094-3.606 6.758-.598l.17.139z"/>
        <path fill="#FFF" d="M78.87 35.52v-6.285c-.002-4.864-3.91-8.82-8.714-8.82s-8.712 3.956-8.712 8.82v6.284h2.995v-6.284c0-3.191 2.564-5.788 5.717-5.788 3.153 0 5.717 2.597 5.717 5.788v6.284h2.996z"/>
        <path fill="#FFF" d="M81.24 47.217V35.99h-.004c-.037-.425-.336-.846-.723-1.001a26.875 26.875 0 0 0-10.047-1.942c-3.454 0-6.834.654-10.046 1.942-.388.156-.686.576-.724 1.001h-.004v11.227c0 .455.313.924.728 1.09a26.876 26.876 0 0 0 10.047 1.942c3.454 0 6.834-.654 10.045-1.941.416-.168.728-.636.728-1.091"/>
        <path fill="#D20008" d="M68.093 39.168c0-1.327 1.062-2.402 2.373-2.402 1.31 0 2.373 1.074 2.373 2.402 0 .88-.49 1.616-1.186 2.033v3.972c0 .663-.53 1.2-1.187 1.2a1.193 1.193 0 0 1-1.187-1.2v-3.972c-.695-.417-1.186-1.153-1.186-2.033"/>
        <path fill="#BF1817" fill-rule="nonzero" d="M66.615 117.56c-1.485-1.861-7.257-8.593-9.304-11.421a43.3 43.3 0 0 1-3.385-5.577v-.08s-.006.015-.02.04l-.017-.04v.08a43.36 43.36 0 0 1-3.385 5.577c-2.048 2.828-7.819 9.56-9.304 11.421-1.33 1.673-3.174 4.353-3.616 7.143a7.448 7.448 0 0 0-.136 1.412c0 4.217 3.513 7.631 7.847 7.631 2.718 0 5.113-1.344 6.522-3.387.233.286 1.174 1.76-.593 5.42-1.985 4.116-3.372 4.919-3.372 4.919H59.96s-1.386-.803-3.374-4.92c-1.763-3.659-.823-5.133-.59-5.42 1.409 2.045 3.803 3.388 6.522 3.388 4.333 0 7.846-3.414 7.846-7.631 0-.481-.048-.955-.135-1.412-.442-2.79-2.285-5.47-3.615-7.143"/>
    </g>
</svg>
