<svg xmlns="http://www.w3.org/2000/svg" xmlns:xlink="http://www.w3.org/1999/xlink" width="89" height="103" viewBox="0 0 89 103">
    <defs>
        <linearGradient id="a" x1="149.221%" x2="23.359%" y1="-28.725%" y2="117.245%">
            <stop offset="0%" stop-color="#FC1202"/>
            <stop offset="41.857%" stop-color="#FB1203"/>
            <stop offset="100%" stop-color="#BE0B09"/>
        </linearGradient>
        <linearGradient id="d" x1="149.221%" x2="23.359%" y1="-28.725%" y2="117.245%">
            <stop offset="0%" stop-color="#FC1202"/>
            <stop offset="100%" stop-color="#BE0B09"/>
        </linearGradient>
        <path id="c" d="M65.256 66.805a27.591 27.591 0 0 1-17.905 6.578c-15.293 0-27.735-12.447-27.735-27.742 0-15.297 12.441-27.743 27.735-27.743a27.602 27.602 0 0 1 17.832 6.515l16.884-9.79A46.452 46.452 0 0 0 56.633 0v8.615c0 .133-.02.259-.06.378-.273 1.33-4.297 2.384-9.223 2.384-4.924 0-8.95-1.054-9.222-2.384-.04-.12-.06-.245-.06-.378V.001A46.425 46.425 0 0 0 12.49 14.787l7.448 4.3c.114.067.213.149.296.241 1.014.9-.084 4.916-2.548 9.18-2.461 4.266-5.387 7.226-6.675 6.799a1.172 1.172 0 0 1-.356-.137L3.193 30.86A46.397 46.397 0 0 0 .8 45.641c0 5.079.804 10.033 2.393 14.779l7.462-4.308c.114-.068.235-.113.357-.138 1.288-.428 4.213 2.531 6.676 6.8 2.462 4.263 3.561 8.278 2.547 9.178a1.211 1.211 0 0 1-.296.241l-7.449 4.302a46.423 46.423 0 0 0 25.578 14.784v-8.787c0-.133.02-.26.06-.378.273-1.329 4.298-2.384 9.224-2.384 4.925 0 8.949 1.055 9.223 2.384.04.118.059.245.059.378v8.787a46.441 46.441 0 0 0 23.633-12.714 47.256 47.256 0 0 0 1.906-2.023l-16.917-9.737z"/>
        <filter id="b" width="135.6%" height="131.8%" x="-17.8%" y="-7.1%" filterUnits="objectBoundingBox">
            <feMorphology in="SourceAlpha" radius="1.5" result="shadowSpreadOuter1"/>
            <feOffset dy="8" in="shadowSpreadOuter1" result="shadowOffsetOuter1"/>
            <feGaussianBlur in="shadowOffsetOuter1" result="shadowBlurOuter1" stdDeviation="4"/>
            <feColorMatrix in="shadowBlurOuter1" values="0 0 0 0 0 0 0 0 0 0 0 0 0 0 0 0 0 0 0.5 0"/>
        </filter>
    </defs>
    <g fill="none" fill-rule="nonzero">
        <path fill="url(#a)" d="M58.582 43.037c-1.302-1.6-6.365-7.384-8.16-9.814a37.053 37.053 0 0 1-2.97-4.791v-.069s-.005.013-.017.034l-.016-.034v.069c-.209.408-1.35 2.6-2.968 4.791-1.796 2.43-6.859 8.215-8.162 9.814-1.166 1.437-2.784 3.74-3.17 6.137-.078.393-.12.8-.12 1.213 0 3.624 3.081 6.558 6.882 6.558 2.385 0 4.485-1.155 5.721-2.911.205.246 1.03 1.513-.52 4.657-1.741 3.537-2.958 4.227-2.958 4.227h10.621s-1.215-.69-2.959-4.227c-1.546-3.144-.721-4.411-.518-4.657 1.237 1.756 3.337 2.911 5.721 2.911 3.801 0 6.882-2.934 6.882-6.558 0-.413-.042-.82-.118-1.213-.388-2.397-2.004-4.7-3.171-6.137" transform="translate(4.362 .169)"/>
        <g transform="translate(4.362 .169)">
            <use fill="#000" filter="url(#b)" xlink:href="#c"/>
            <use fill="url(#d)" xlink:href="#c"/>
        </g>
    </g>
</svg>
