<svg id="Layer_1" data-name="Layer 1" xmlns="http://www.w3.org/2000/svg" viewBox="0 0 25.47 27.39"><defs><style>.cls-1,.cls-2{fill:#bf1817;}.cls-2{stroke:#bf1817;}</style></defs><title>icon_limits</title><path class="cls-1" d="M25.21,28.66H24.06V11.93a1.42,1.42,0,0,0-1.42-1.41H20.07a1.41,1.41,0,0,0-1.41,1.41V28.66H15.73V19.51a1.41,1.41,0,0,0-1.41-1.41H11.74a1.41,1.41,0,0,0-1.41,1.41v9.15H7.41V23.92A1.42,1.42,0,0,0,6,22.51H3.42A1.41,1.41,0,0,0,2,23.92v4.74H.79a.52.52,0,0,0-.52.52.52.52,0,0,0,.52.53H25.21a.52.52,0,0,0,.52-.53.52.52,0,0,0-.52-.52Z" transform="translate(-0.27 -2.31)"/><path class="cls-2" d="M5.3,17.44a.52.52,0,0,0,.37-.16l9.07-9.07,2,2a.53.53,0,0,0,.74,0h0L23,4.61V6.38a.52.52,0,0,0,.52.53.52.52,0,0,0,.52-.53h0v-3a.52.52,0,0,0-.49-.55H20.3a.53.53,0,0,0-.53.53.52.52,0,0,0,.53.52h2l-5.19,5.2-2-2a.51.51,0,0,0-.74,0h0L4.92,16.54a.53.53,0,0,0,0,.74.55.55,0,0,0,.38.16" transform="translate(-0.27 -2.31)"/></svg>