<svg id="Layer_1" data-name="Layer 1" xmlns="http://www.w3.org/2000/svg" viewBox="0 0 25.5 28.86"><defs><style>.cls-1{fill:#bf1817;}</style></defs><title>icon_logout</title><path class="cls-1" d="M7.63,7.92c0,.39,0,.78,0,1.18a1.29,1.29,0,0,1-.44,1A11.34,11.34,0,0,0,5,12.92a8.85,8.85,0,0,0-1,3.74A8.36,8.36,0,0,0,5,21a8.74,8.74,0,0,0,2,2.63A8.94,8.94,0,0,0,11,25.71a8.83,8.83,0,0,0,5.6-.5A8.94,8.94,0,0,0,19.76,23a8.89,8.89,0,0,0,1.75-9.2,9.22,9.22,0,0,0-2.43-3.48,1.73,1.73,0,0,1-.61-1.41c0-.78,0-1.56,0-2.34A.59.59,0,0,1,18.74,6a.65.65,0,0,1,.67.06,12.13,12.13,0,0,1,3,2.35,12.33,12.33,0,0,1,3.14,6,12.08,12.08,0,0,1,.11,4.6,12.76,12.76,0,0,1-9.33,10.16,14.13,14.13,0,0,1-2.24.36,12,12,0,0,1-5.31-.69,12,12,0,0,1-3.08-1.6,13,13,0,0,1-2.87-2.78A12,12,0,0,1,.67,19.93a12.48,12.48,0,0,1,4-12.39A19.76,19.76,0,0,1,6.74,6c.46-.31.87-.08.89.47S7.63,7.45,7.63,7.92Z" transform="translate(-0.31 -0.75)"/><path class="cls-1" d="M11.21,7.08c0-1.49,0-3,0-4.47A1.85,1.85,0,0,1,13.53.81,1.8,1.8,0,0,1,14.9,2.53c0,3,0,6,0,9a1.84,1.84,0,0,1-3.68.14c0-.07,0-.13,0-.2Z" transform="translate(-0.31 -0.75)"/></svg>