<svg xmlns="http://www.w3.org/2000/svg" width="54" height="61" viewBox="0 0 54 61">
    <g fill="#BF0A0A" fill-rule="nonzero" opacity=".854">
        <path d="M38.224 28.853c-.85-1.045-4.155-4.82-5.327-6.407a24.191 24.191 0 0 1-1.939-3.129v-.044l-.01.021c-.008-.013-.011-.021-.011-.021v.044a24.224 24.224 0 0 1-1.939 3.129c-1.172 1.586-4.477 5.363-5.328 6.407-.762.938-1.817 2.442-2.07 4.007-.05.256-.078.522-.078.792 0 2.366 2.012 4.281 4.493 4.281 1.557 0 2.928-.754 3.735-1.9.134.16.673.987-.339 3.04-1.137 2.309-1.931 2.76-1.931 2.76H34.414s-.794-.45-1.932-2.76c-1.01-2.053-.471-2.88-.338-3.04.807 1.146 2.178 1.9 3.735 1.9 2.482 0 4.493-1.915 4.493-4.281 0-.27-.027-.536-.077-.792-.253-1.565-1.309-3.069-2.07-4.007"/>
        <path d="M42.582 44.37a18.014 18.014 0 0 1-11.69 4.295c-9.985 0-18.108-8.126-18.108-18.112 0-9.987 8.123-18.113 18.108-18.113a18.02 18.02 0 0 1 11.642 4.253l11.024-6.391A30.328 30.328 0 0 0 36.953.756V6.38a.778.778 0 0 1-.04.247c-.178.868-2.805 1.556-6.022 1.556-3.215 0-5.843-.688-6.02-1.556a.765.765 0 0 1-.04-.247V.755a30.31 30.31 0 0 0-16.7 9.653l4.864 2.808a.822.822 0 0 1 .193.158c.662.587-.055 3.209-1.664 5.993-1.607 2.785-3.517 4.718-4.357 4.439a.765.765 0 0 1-.233-.09l-4.872-2.812A30.292 30.292 0 0 0 .5 30.554c0 3.315.524 6.55 1.562 9.648l4.872-2.813a.763.763 0 0 1 .233-.09c.84-.28 2.75 1.653 4.358 4.44 1.608 2.783 2.326 5.404 1.664 5.992a.79.79 0 0 1-.194.157l-4.863 2.809a30.308 30.308 0 0 0 16.7 9.652v-5.737a.76.76 0 0 1 .039-.246c.178-.868 2.806-1.557 6.021-1.557 3.216 0 5.843.689 6.022 1.557.026.077.039.16.039.246v5.737a30.32 30.32 0 0 0 16.674-9.622l-11.045-6.356z"/>
    </g>
</svg>
