<?xml version="1.0" encoding="utf-8"?>
<!-- Generator: Adobe Illustrator 22.0.0, SVG Export Plug-In . SVG Version: 6.00 Build 0)  -->
<svg version="1.1" id="Layer_1" xmlns="http://www.w3.org/2000/svg" xmlns:xlink="http://www.w3.org/1999/xlink" x="0px" y="0px"
	 viewBox="0 0 300 197" style="enable-background:new 0 0 300 197;" xml:space="preserve">
<style type="text/css">
	.st0{fill:#BF0A0A;}
	.st1{fill:#FFFFFF;}
</style>
<g>
	<g>
		<g>
			<path class="st1" d="M32.3,160.2c0.2,0.1,0.4,0.3,0.5,0.4c0.1,0.2,0.2,0.4,0.2,0.6c0,0.2,0,0.4-0.1,0.6l-2.4,4.1
				c-0.3,0.4-0.6,0.6-0.9,0.6c-0.1,0-0.2,0-0.3-0.1c-0.1,0-0.3-0.1-0.4-0.2c-1-0.7-2.2-1.3-3.4-1.7c-1.2-0.4-2.5-0.6-3.8-0.6
				c-1.7,0-3.2,0.3-4.7,1c-1.4,0.6-2.6,1.5-3.7,2.6c-1,1.1-1.8,2.4-2.4,3.9c-0.6,1.5-0.9,3.1-0.9,4.7c0,1.7,0.3,3.2,0.9,4.7
				c0.6,1.5,1.4,2.7,2.4,3.8c1,1.1,2.2,2,3.7,2.6c1.4,0.6,3,0.9,4.7,0.9c1.3,0,2.6-0.2,3.8-0.6c1.2-0.4,2.3-1,3.4-1.7
				c0.1-0.1,0.3-0.2,0.4-0.2c0.1,0,0.3-0.1,0.4-0.1c0.3,0,0.6,0.2,0.9,0.5l2.5,4.2c0.1,0.2,0.1,0.4,0.1,0.5c0,0.2-0.1,0.4-0.2,0.6
				c-0.1,0.1-0.3,0.3-0.5,0.4c-1.6,1-3.2,1.9-5,2.4c-1.8,0.6-3.7,0.9-5.7,0.9c-1.8,0-3.4-0.2-5.1-0.7c-1.6-0.4-3.1-1.1-4.5-1.9
				c-1.4-0.8-2.7-1.8-3.8-3c-1.2-1.2-2.1-2.4-3-3.8c-0.8-1.4-1.5-2.9-1.9-4.5c-0.4-1.6-0.7-3.3-0.7-5.1c0-1.8,0.2-3.4,0.7-5.1
				c0.4-1.6,1.1-3.1,1.9-4.6c0.8-1.4,1.8-2.7,3-3.9c1.2-1.2,2.4-2.2,3.8-3c1.4-0.8,2.9-1.5,4.5-1.9c1.6-0.5,3.3-0.7,5.1-0.7
				c2,0,3.9,0.3,5.6,0.8C29,158.3,30.7,159.1,32.3,160.2z"/>
		</g>
		<g>
			<path class="st1" d="M67.3,192.5c0,0.3-0.1,0.5-0.2,0.7c-0.1,0.2-0.3,0.3-0.5,0.4c-0.2,0.1-0.4,0.2-0.7,0.2
				c-0.3,0-0.5,0.1-0.8,0.1H62c-0.5,0-0.9-0.1-1.1-0.4c-0.2-0.3-0.4-0.6-0.5-1.1l-0.1-2.1c-0.6,0.6-1.2,1.1-1.9,1.6
				c-0.7,0.5-1.5,0.9-2.3,1.3c-0.8,0.4-1.7,0.7-2.6,0.9c-0.9,0.2-1.9,0.3-2.8,0.3c-1.5,0-2.9-0.2-4.3-0.6c-1.4-0.4-2.7-0.9-3.9-1.6
				c-1.2-0.7-2.3-1.6-3.3-2.5c-1-1-1.8-2.1-2.5-3.3c-0.7-1.2-1.3-2.5-1.6-3.9c-0.4-1.4-0.6-2.8-0.6-4.4c0-1.5,0.2-3,0.6-4.4
				c0.4-1.4,0.9-2.7,1.6-3.9c0.7-1.2,1.6-2.3,2.5-3.3c1-1,2.1-1.8,3.3-2.5c1.2-0.7,2.5-1.3,3.9-1.6c1.4-0.4,2.8-0.6,4.3-0.6
				c1.1,0,2.1,0.1,3,0.3c1,0.2,1.9,0.5,2.7,0.9c0.8,0.4,1.6,0.9,2.3,1.5s1.4,1.2,1.9,1.9l0.3-2.7c0.1-0.3,0.2-0.5,0.2-0.7
				c0.1-0.2,0.2-0.3,0.3-0.5c0.1-0.1,0.2-0.2,0.4-0.2c0.2,0,0.4-0.1,0.6-0.1h2.5c0.3,0,0.5,0,0.8,0.1c0.3,0.1,0.5,0.1,0.7,0.2
				c0.2,0.1,0.4,0.3,0.5,0.4c0.1,0.2,0.2,0.4,0.2,0.7V192.5z M41.8,178.6c0,1.3,0.2,2.6,0.7,3.8c0.5,1.2,1.1,2.2,1.9,3.1
				c0.8,0.9,1.8,1.6,2.9,2.1c1.1,0.5,2.3,0.8,3.7,0.8c1.3,0,2.6-0.3,3.8-0.8c1.2-0.5,2.2-1.2,3.1-2.1c0.9-0.9,1.5-1.9,2-3.1
				c0.5-1.2,0.7-2.4,0.7-3.8c0-1.3-0.2-2.6-0.7-3.7c-0.5-1.2-1.2-2.2-2-3.1c-0.9-0.9-1.9-1.6-3.1-2.1c-1.2-0.5-2.4-0.8-3.8-0.8
				c-1.3,0-2.6,0.3-3.7,0.8c-1.1,0.5-2.1,1.2-2.9,2.1c-0.8,0.9-1.5,1.9-1.9,3.1C42,176.1,41.8,177.3,41.8,178.6z"/>
		</g>
		<g>
			<path class="st1" d="M77.4,185.5c0.3,0.5,0.8,1,1.3,1.4c0.5,0.4,1.1,0.7,1.6,1c0.6,0.3,1.1,0.4,1.6,0.6c0.5,0.1,0.9,0.2,1.2,0.2
				c0.5,0,1,0,1.6-0.1c0.6-0.1,1.2-0.3,1.8-0.5c0.6-0.3,1-0.6,1.4-1c0.4-0.4,0.6-1,0.6-1.7c0-0.7-0.2-1.2-0.5-1.6
				c-0.3-0.4-0.7-0.8-1.2-1c-0.5-0.3-1.1-0.5-1.8-0.7c-0.7-0.2-1.4-0.4-2.1-0.6c-1.7-0.5-3.2-1-4.5-1.7c-1.2-0.7-2.2-1.4-3-2.3
				c-0.8-0.8-1.4-1.8-1.7-2.8c-0.4-1-0.5-2.1-0.5-3.3c0-1.3,0.3-2.6,0.8-3.7c0.5-1.1,1.3-2.1,2.2-2.9c1-0.8,2.1-1.4,3.5-1.9
				c1.4-0.4,2.9-0.7,4.5-0.7c1.2,0,2.2,0.1,3.1,0.3c0.9,0.2,1.8,0.5,2.5,0.9c0.8,0.4,1.5,0.9,2.2,1.6c0.7,0.6,1.4,1.4,2.1,2.2
				c0.2,0.3,0.4,0.6,0.4,0.9c0,0.3-0.2,0.6-0.5,0.8c-0.2,0.2-0.5,0.4-0.9,0.7c-0.3,0.3-0.7,0.6-1,0.9c-0.3,0.3-0.6,0.5-0.9,0.7
				c-0.3,0.2-0.5,0.3-0.7,0.3c-0.4,0-0.7-0.2-1.1-0.6c-0.4-0.4-0.7-0.8-1.1-1.1c-0.4-0.3-0.7-0.6-1.1-0.8c-0.4-0.2-0.8-0.4-1.3-0.5
				c-0.5-0.1-1-0.2-1.5-0.2c-0.4,0-0.9,0.1-1.4,0.2c-0.5,0.1-0.9,0.3-1.3,0.6c-0.4,0.3-0.7,0.6-1,1c-0.3,0.4-0.4,0.8-0.4,1.3
				c0,0.5,0.2,1,0.5,1.4c0.3,0.4,0.8,0.7,1.3,1c0.5,0.3,1.1,0.5,1.7,0.7c0.6,0.2,1.2,0.3,1.7,0.5c1.5,0.4,2.9,0.9,4.2,1.5
				c1.3,0.6,2.4,1.2,3.3,2.1c0.9,0.8,1.6,1.7,2.2,2.8c0.5,1.1,0.8,2.4,0.8,3.8c0,1.5-0.3,2.9-0.9,4.1c-0.6,1.2-1.5,2.3-2.5,3.1
				c-1.1,0.8-2.4,1.5-3.9,1.9c-1.5,0.4-3.1,0.7-4.8,0.7c-1,0-2.1-0.1-3.2-0.3c-1.1-0.2-2.1-0.6-3.1-1c-1-0.5-1.9-1.1-2.7-1.8
				c-0.8-0.7-1.5-1.6-2.1-2.6c-0.2-0.4-0.4-0.8-0.4-1.1c0-0.2,0.1-0.4,0.2-0.6c0.1-0.2,0.3-0.3,0.4-0.5l2.8-2.1
				c0.2-0.1,0.5-0.2,0.7-0.2c0.2,0,0.4,0.1,0.6,0.2C77,185.1,77.2,185.3,77.4,185.5z"/>
		</g>
		<g>
			<path class="st1" d="M101,163.9c0-0.4,0.1-0.8,0.4-1.1c0.2-0.3,0.6-0.4,1.1-0.4h4c0.2,0,0.4,0,0.5,0.1c0.2,0.1,0.3,0.2,0.5,0.3
				c0.1,0.1,0.3,0.3,0.4,0.5c0.1,0.2,0.1,0.4,0.1,0.6v28.7c0,1-0.5,1.5-1.5,1.5h-3.9c-0.8,0-1.5-0.7-1.5-1.5L101,163.9L101,163.9z"
				/>
		</g>
		<g>
			<g>
				<path class="st1" d="M117.1,163.1c0.2-0.3,0.4-0.4,0.6-0.5c0.1-0.1,0.3-0.2,0.6-0.2c0.3,0,0.5,0,0.7,0h2.5
					c0.5,0,0.8,0.2,1.1,0.5c0.2,0.3,0.4,0.7,0.5,1l0.3,2.6c0.4-0.6,0.8-1.1,1.4-1.7c0.5-0.5,1.2-1,1.9-1.5c0.8-0.4,1.6-0.8,2.6-1
					c1-0.3,2.1-0.4,3.3-0.4c1.9,0,3.6,0.4,5.1,1.1c1.5,0.7,2.8,1.7,3.8,2.9c1,1.2,1.8,2.7,2.3,4.3c0.5,1.7,0.8,3.5,0.8,5.4v16.6
					c0,0.6-0.1,1-0.4,1.3c-0.3,0.3-0.7,0.5-1.2,0.5h-3.6c-0.7,0-1.1-0.1-1.3-0.4c-0.2-0.2-0.3-0.7-0.3-1.3v-16.6
					c0-0.9-0.2-1.7-0.5-2.6c-0.3-0.8-0.7-1.6-1.3-2.2c-0.6-0.7-1.3-1.2-2.1-1.6c-0.8-0.4-1.8-0.6-2.9-0.6c-0.8,0-1.6,0.2-2.4,0.5
					c-0.8,0.3-1.6,0.7-2.3,1.3c-0.7,0.6-1.2,1.2-1.7,2.1c-0.4,0.8-0.7,1.7-0.7,2.7v16.1c0,0.3,0,0.6,0,0.9c0,0.3-0.1,0.6-0.2,0.8
					c-0.1,0.3-0.3,0.4-0.5,0.6c-0.2,0.2-0.5,0.2-0.8,0.2h-3.9c-0.5,0-0.9-0.1-1.2-0.4c-0.3-0.3-0.4-0.6-0.4-1.1v-28.7
					C116.8,163.6,116.9,163.3,117.1,163.1z"/>
			</g>
		</g>
		<g>
			<path class="st1" d="M148.8,178.7c0-1.5,0.2-3,0.6-4.4c0.4-1.4,0.9-2.7,1.7-3.9c0.7-1.2,1.6-2.3,2.6-3.3c1-1,2.1-1.8,3.3-2.5
				c1.2-0.7,2.5-1.3,3.9-1.6c1.4-0.4,2.8-0.6,4.3-0.6c1.5,0,2.9,0.2,4.3,0.6c1.4,0.4,2.7,0.9,3.9,1.6c1.2,0.7,2.3,1.5,3.3,2.5
				c1,1,1.8,2.1,2.6,3.3c0.7,1.2,1.3,2.5,1.7,3.9c0.4,1.4,0.6,2.9,0.6,4.4c0,1.5-0.2,3-0.6,4.4c-0.4,1.4-0.9,2.7-1.7,3.9
				c-0.7,1.2-1.6,2.3-2.6,3.3c-1,1-2.1,1.8-3.3,2.5c-1.2,0.7-2.5,1.3-3.9,1.6c-1.4,0.4-2.8,0.6-4.3,0.6c-1.5,0-3-0.2-4.3-0.6
				c-1.4-0.4-2.7-0.9-3.9-1.6c-1.2-0.7-2.3-1.6-3.3-2.5c-1-1-1.9-2.1-2.6-3.3c-0.7-1.2-1.3-2.5-1.7-3.9
				C149,181.6,148.8,180.2,148.8,178.7z M155.8,178.7c0,1.3,0.2,2.6,0.7,3.8c0.5,1.2,1.1,2.2,1.9,3.1c0.8,0.9,1.8,1.6,3,2.1
				c1.1,0.5,2.4,0.8,3.7,0.8c1.3,0,2.5-0.3,3.6-0.8c1.1-0.5,2.1-1.2,2.9-2.1c0.8-0.9,1.4-1.9,1.9-3.1c0.5-1.2,0.7-2.4,0.7-3.8
				c0-1.3-0.2-2.6-0.7-3.8c-0.5-1.2-1.1-2.2-1.9-3.1c-0.8-0.9-1.8-1.6-2.9-2.2c-1.1-0.5-2.3-0.8-3.6-0.8c-1.3,0-2.6,0.3-3.7,0.8
				c-1.1,0.5-2.1,1.3-3,2.2c-0.8,0.9-1.5,2-1.9,3.1C156,176.1,155.8,177.4,155.8,178.7z"/>
		</g>
		<g>
			<path class="st1" d="M215.5,160.2c0.2,0.1,0.4,0.3,0.5,0.4c0.1,0.2,0.2,0.4,0.2,0.6c0,0.2-0.1,0.4-0.2,0.6l-2.4,4.1
				c-0.3,0.4-0.6,0.6-0.9,0.6c-0.1,0-0.2,0-0.3-0.1c-0.1,0-0.3-0.1-0.4-0.2c-1-0.7-2.2-1.3-3.4-1.7c-1.2-0.4-2.5-0.6-3.8-0.6
				c-1.7,0-3.2,0.3-4.7,1c-1.4,0.6-2.6,1.5-3.7,2.6c-1,1.1-1.8,2.4-2.4,3.9c-0.6,1.5-0.9,3.1-0.9,4.7c0,1.7,0.3,3.2,0.9,4.7
				c0.6,1.5,1.4,2.7,2.4,3.8c1,1.1,2.2,2,3.7,2.6c1.4,0.6,3,0.9,4.7,0.9c1.3,0,2.6-0.2,3.8-0.6c1.2-0.4,2.3-1,3.4-1.7
				c0.1-0.1,0.3-0.2,0.4-0.2c0.1,0,0.3-0.1,0.4-0.1c0.3,0,0.6,0.2,0.9,0.5l2.5,4.2c0.1,0.2,0.2,0.4,0.2,0.5c0,0.2-0.1,0.4-0.2,0.6
				c-0.1,0.1-0.3,0.3-0.5,0.4c-1.6,1-3.2,1.9-5,2.4c-1.8,0.6-3.7,0.9-5.7,0.9c-1.8,0-3.4-0.2-5.1-0.7c-1.6-0.4-3.1-1.1-4.5-1.9
				c-1.4-0.8-2.7-1.8-3.8-3c-1.2-1.2-2.1-2.4-3-3.8c-0.8-1.4-1.5-2.9-1.9-4.5c-0.4-1.6-0.7-3.3-0.7-5.1c0-1.8,0.2-3.4,0.7-5.1
				c0.4-1.6,1.1-3.1,1.9-4.6c0.8-1.4,1.8-2.7,3-3.9c1.2-1.2,2.4-2.2,3.8-3c1.4-0.8,2.9-1.5,4.5-1.9c1.6-0.5,3.3-0.7,5.1-0.7
				c2,0,3.9,0.3,5.6,0.8C212.3,158.3,214,159.1,215.5,160.2z"/>
		</g>
		<g>
			<path class="st1" d="M218,178.7c0-1.5,0.2-3,0.6-4.4c0.4-1.4,0.9-2.7,1.7-3.9c0.7-1.2,1.6-2.3,2.6-3.3c1-1,2.1-1.8,3.3-2.5
				s2.5-1.3,3.9-1.6c1.4-0.4,2.8-0.6,4.3-0.6c1.5,0,2.9,0.2,4.3,0.6c1.4,0.4,2.7,0.9,3.9,1.6c1.2,0.7,2.3,1.5,3.3,2.5
				c1,1,1.8,2.1,2.6,3.3c0.7,1.2,1.3,2.5,1.7,3.9c0.4,1.4,0.6,2.9,0.6,4.4c0,1.5-0.2,3-0.6,4.4c-0.4,1.4-0.9,2.7-1.7,3.9
				c-0.7,1.2-1.6,2.3-2.6,3.3c-1,1-2.1,1.8-3.3,2.5c-1.2,0.7-2.5,1.3-3.9,1.6c-1.4,0.4-2.8,0.6-4.3,0.6c-1.5,0-3-0.2-4.3-0.6
				c-1.4-0.4-2.7-0.9-3.9-1.6c-1.2-0.7-2.3-1.6-3.3-2.5c-1-1-1.8-2.1-2.6-3.3c-0.7-1.2-1.3-2.5-1.7-3.9
				C218.2,181.6,218,180.2,218,178.7z M225,178.7c0,1.3,0.2,2.6,0.7,3.8c0.5,1.2,1.1,2.2,1.9,3.1c0.8,0.9,1.8,1.6,3,2.1
				c1.1,0.5,2.4,0.8,3.7,0.8c1.3,0,2.5-0.3,3.6-0.8c1.1-0.5,2.1-1.2,2.9-2.1c0.8-0.9,1.4-1.9,1.9-3.1c0.5-1.2,0.7-2.4,0.7-3.8
				c0-1.3-0.2-2.6-0.7-3.8c-0.5-1.2-1.1-2.2-1.9-3.1c-0.8-0.9-1.8-1.6-2.9-2.2c-1.1-0.5-2.3-0.8-3.6-0.8c-1.3,0-2.6,0.3-3.7,0.8
				c-1.1,0.5-2.1,1.3-3,2.2c-0.8,0.9-1.5,2-1.9,3.1C225.2,176.1,225,177.4,225,178.7z"/>
		</g>
		<g>
			<path class="st1" d="M256.4,163.9c0-0.4,0.1-0.8,0.4-1.1c0.2-0.3,0.6-0.4,1.1-0.4h4c0.2,0,0.4,0,0.5,0.1c0.2,0.1,0.3,0.2,0.5,0.3
				c0.1,0.1,0.3,0.3,0.4,0.5c0.1,0.2,0.1,0.4,0.1,0.6v28.7c0,1-0.5,1.5-1.5,1.5h-3.9c-0.8,0-1.5-0.7-1.5-1.5L256.4,163.9
				L256.4,163.9z"/>
		</g>
		<g>
			<path class="st1" d="M271.5,163.1c0.2-0.3,0.4-0.4,0.6-0.5c0.1-0.1,0.3-0.2,0.6-0.2c0.3,0,0.5,0,0.7,0h2.5c0.5,0,0.8,0.2,1.1,0.5
				c0.2,0.3,0.4,0.7,0.5,1l0.3,2.6c0.4-0.6,0.8-1.1,1.4-1.7c0.5-0.5,1.2-1,1.9-1.5c0.8-0.4,1.6-0.8,2.6-1c1-0.3,2.1-0.4,3.3-0.4
				c1.9,0,3.6,0.4,5.1,1.1c1.5,0.7,2.8,1.7,3.8,2.9c1,1.2,1.8,2.7,2.3,4.3c0.5,1.7,0.8,3.5,0.8,5.4v16.6c0,0.6-0.1,1-0.4,1.3
				c-0.3,0.3-0.7,0.5-1.2,0.5h-3.6c-0.7,0-1.1-0.1-1.3-0.4c-0.2-0.2-0.3-0.7-0.3-1.3v-16.6c0-0.9-0.1-1.7-0.4-2.6
				c-0.3-0.8-0.7-1.6-1.3-2.2c-0.6-0.7-1.3-1.2-2.1-1.6c-0.8-0.4-1.8-0.6-2.9-0.6c-0.8,0-1.6,0.2-2.4,0.5c-0.8,0.3-1.6,0.7-2.3,1.3
				c-0.7,0.6-1.2,1.2-1.7,2.1c-0.4,0.8-0.7,1.7-0.7,2.7v16.1c0,0.3,0,0.6-0.1,0.9c0,0.3-0.1,0.6-0.2,0.8c-0.1,0.3-0.3,0.4-0.5,0.6
				c-0.2,0.2-0.5,0.2-0.8,0.2h-3.9c-0.5,0-0.9-0.1-1.2-0.4c-0.3-0.3-0.4-0.6-0.4-1.1v-28.7C271.2,163.6,271.3,163.3,271.5,163.1z"/>
		</g>
		<g>
			<ellipse class="st1" cx="104.7" cy="155.7" rx="3.9" ry="3.9"/>
		</g>
		<g>
			<ellipse class="st1" cx="259.7" cy="155.7" rx="3.9" ry="3.9"/>
		</g>
	</g>
	<g>
		<path class="st0" d="M174.3,61.3c-1.8-2.2-8.8-10.2-11.2-13.5c-2.2-3-3.8-6-4.7-6.6v-0.1c0.6,0,0.6,0,0.6,0c0,0,0,0,0.4,0v0.1
			c-0.7,0.6-2.3,3.6-4.5,6.6c-2.5,3.3-9.4,11.3-11.2,13.5c-1.6,2-3.8,5.2-4.4,8.5c-0.1,0.5-0.2,1.1-0.2,1.7c0,5,4.2,9,9.5,9
			c3.3,0,6.2-1.6,7.9-4c0.3,0.3,1.4,2.1-0.7,6.4c-2.4,4.9-4.1,5.8-4.1,6.3h7.3h0h7.3c0-0.5-1.7-1.4-4.1-6.3c-2.1-4.3-1-6.1-0.7-6.4
			c1.7,2.4,4.6,4,7.9,4c5.2,0,9.5-4,9.5-9c0-0.6-0.1-1.1-0.2-1.7C178.1,66.4,175.9,63.2,174.3,61.3"/>
		<path class="st0" d="M183.5,94c-6.7,5.6-15.3,9.1-24.7,9.1c-21.1,0-38.2-17.1-38.2-38.2c0-21.1,17.1-38.2,38.2-38.2
			c9.3,0,17.9,3.4,24.6,9l23.3-13.5c-0.8-0.9-1.6-1.8-2.5-2.6c-5.9-5.9-12.7-10.5-20.4-13.7C179.9,4.1,171.3,2,171.3,2v11.9
			c0,0.2,0,0.4-0.1,0.5c-0.4,1.8-6,3.3-12.8,3.3c-6.8,0-12.4-1.5-12.8-3.3c-0.1-0.2-0.1-0.3-0.1-0.5V2c0,0-7.7,2.1-11.6,3.8
			c-7.6,3.2-14.5,7.9-20.4,13.7c-0.9,0.9-1.8,1.9-2.7,2.9l10.3,5.9c0.2,0.1,0.3,0.2,0.4,0.3c1.4,1.2-0.1,6.8-3.5,12.6
			c-3.4,5.9-7.4,10-9.2,9.4c-0.2,0-0.3-0.1-0.5-0.2L98,44.5c-2.2,6.5-3.3,13.4-3.3,20.4c0,7,1.1,13.8,3.3,20.4l10.3-5.9
			c0.2-0.1,0.3-0.2,0.5-0.2c1.8-0.6,5.8,3.5,9.2,9.4c3.4,5.9,4.9,11.4,3.5,12.6c-0.1,0.1-0.3,0.2-0.4,0.3l-10.3,5.9
			c0.9,1,1.8,1.9,2.7,2.9c5.9,5.9,12.7,10.5,20.4,13.7c3.9,1.7,12.6,3.8,12.6,3.8v-12.2c0-0.2,0-0.3,0.1-0.5
			c0.4-1.8,5.7-3.2,12.3-3.2s11.9,1.4,12.3,3.2c0.1,0.2,0.1,0.3,0.1,0.5v12.2c0,0,8.6-2.1,12.5-3.8c7.6-3.2,14.5-7.9,20.4-13.7
			c0.9-0.9,1.8-1.8,2.6-2.8L183.5,94z"/>
	</g>
</g>
</svg>
