<svg xmlns="http://www.w3.org/2000/svg" width="40" height="48" viewBox="0 0 40 48">
    <defs>
        <filter id="a" width="144.2%" height="144.2%" x="-22.1%" y="-12.8%" filterUnits="objectBoundingBox">
            <feOffset dy="4" in="SourceAlpha" result="shadowOffsetOuter1"/>
            <feGaussianBlur in="shadowOffsetOuter1" result="shadowBlurOuter1" stdDeviation="2.5"/>
            <feColorMatrix in="shadowBlurOuter1" result="shadowMatrixOuter1" values="0 0 0 0 0 0 0 0 0 0 0 0 0 0 0 0 0 0 0.15 0"/>
            <feMerge>
                <feMergeNode in="shadowMatrixOuter1"/>
                <feMergeNode in="SourceGraphic"/>
            </feMerge>
        </filter>
        <linearGradient id="b" x1="50%" x2="50%" y1="100%" y2="0%">
            <stop offset="0%" stop-color="#BF1817"/>
            <stop offset="100%" stop-color="#E67240"/>
        </linearGradient>
    </defs>
    <g fill="none" fill-rule="evenodd" filter="url(#a)" transform="translate(-1 -4.145)">
        <path fill="url(#b)" d="M1.256 19.457C-.029 15.189-.82 7.894 4.583 2.904c4.13-3.813 15.285-4.198 19.166 4.118.648 1.389-.238 3.564-1.98 3.485-.685-.03-1.109 2.139-1.505 3.485.555 5.465 5.494 5.566 8 9.742 3.088 5.148-.713 12.75-9.821 12.75S4.113 28.947 1.256 19.458z" transform="matrix(-1 0 0 1 35.382 5.325)"/>
        <path fill="#BF1817" d="M37.215 37.216c.774 1.479 1.355 4.91 1.742 10.296H6.327c.387-5.385.968-8.817 1.742-10.296 1.162-2.217 6.02-4.752 14.573-7.603 8.554 2.851 13.411 5.386 14.573 7.603z"/>
        <path fill="#F1F1F1" d="M26.444 31.514c-1.348.739-2.642 1.109-3.883 1.109-1.24 0-2.48-.37-3.72-1.11V28.03c-.474.085-.838.072-1.211.072-3.8 0-5.232-5.535-4.492-12.269.475 0 1.584 0 3.168-2.217-.396 3.088 4.198 2.613 5.94.158-.871 2.93 1.426 4.91 3.406 3.722 3.882-2.33 4.755 4.772.792 4.832v9.187z"/>
        <path fill="#CDCDCD" fill-rule="nonzero" d="M18.84 28.029c2.112-.37 3.96-1.082 5.544-2.138-1.32 2.27-3.168 3.405-5.544 3.405V28.03z"/>
    </g>
</svg>
