<?xml version="1.0" encoding="utf-8"?>
<!-- Generator: Adobe Illustrator 16.0.0, SVG Export Plug-In . SVG Version: 6.00 Build 0)  -->
<!DOCTYPE svg PUBLIC "-//W3C//DTD SVG 1.1//EN" "http://www.w3.org/Graphics/SVG/1.1/DTD/svg11.dtd">
<svg version="1.1" id="warning" xmlns="http://www.w3.org/2000/svg" xmlns:xlink="http://www.w3.org/1999/xlink" x="0px" y="0px"
	 width="50px" height="50px" viewBox="0 0 50 50" enable-background="new 0 0 50 50" xml:space="preserve">
<g>
	<path fill="#ff3a3a" d="M25.001,7.02c1.253,0,2.556,1.012,3.575,2.776L44.159,36.79c1.019,1.765,1.243,3.398,0.617,4.483
		c-0.628,1.085-2.153,1.707-4.19,1.707H9.414c-2.036,0-3.563-0.622-4.189-1.707c-0.627-1.085-0.402-2.719,0.616-4.483L21.426,9.796
		C22.446,8.032,23.748,7.02,25.001,7.02 M25.001,5.148c-1.883,0-3.767,1.237-5.195,3.712L4.219,35.854
		c-2.856,4.949-0.519,8.999,5.195,8.999h31.172c5.714,0,8.052-4.05,5.195-8.999L30.196,8.86C28.767,6.385,26.884,5.148,25.001,5.148
		L25.001,5.148z"/>
	<g>
		<g>
			<path fill="#ff3a3a" d="M25,15c1.104,0,2,0.896,2,2v12c0,1.104-0.896,2-2,2s-2-0.896-2-2V17C23,15.895,23.896,15,25,15z"/>
		</g>
		<circle fill="#ff3a3a" cx="25" cy="36.35" r="2.65"/>
	</g>
</g>
</svg>
